<svg width="48" height="48" viewBox="0 0 48 48" fill="none" xmlns="http://www.w3.org/2000/svg">
<path d="M47.9998 23.8941C48.0207 28.6408 46.6336 33.2871 44.0139 37.2455C41.3942 41.2038 37.6596 44.2965 33.2822 46.1323C28.9049 47.9682 24.0814 48.4648 19.4219 47.5593C14.7623 46.6538 10.4759 44.387 7.10463 41.0454C3.73338 37.7038 1.42872 33.4376 0.482101 28.7862C-0.464521 24.1348 -0.0105956 19.3072 1.78648 14.9138C3.58355 10.5204 6.64305 6.75855 10.5781 4.10396C14.5131 1.44937 19.147 0.0212636 23.8937 0.000235522C27.0454 -0.0137268 30.169 0.593235 33.0862 1.78647C36.0034 2.9797 38.6569 4.73583 40.8954 6.95459C43.1338 9.17335 44.9134 11.8113 46.1323 14.7178C47.3513 17.6243 47.9859 20.7424 47.9998 23.8941Z" fill="#8DC63F"/>
<path d="M46.1999 23.9029C46.2215 28.2932 44.9406 32.5914 42.5193 36.2537C40.098 39.9161 36.6449 42.7781 32.5969 44.4778C28.5488 46.1775 24.0876 46.6386 19.7775 45.8027C15.4675 44.9668 11.5021 42.8715 8.38289 39.7817C5.26372 36.692 3.13089 32.7467 2.25416 28.4447C1.37743 24.1427 1.79617 19.6773 3.45743 15.6134C5.11869 11.5494 7.94784 8.06937 11.5871 5.61342C15.2263 3.15746 19.5121 1.83591 23.9025 1.8159C29.7876 1.79001 35.4422 4.102 39.6233 8.24367C43.8044 12.3853 46.1699 18.0178 46.1999 23.9029Z" fill="#F9E988"/>
<path d="M24.4086 3.24547C25.8196 2.99503 27.2636 2.99503 28.6746 3.24547C30.0992 3.47134 31.4763 3.93271 32.7494 4.61069C34.0155 5.30634 35.1094 6.25069 36.1981 7.13591C37.2868 8.02112 38.3703 8.92721 39.4016 9.91851C40.4544 10.8943 41.3732 12.0054 42.1338 13.2229C42.9167 14.4307 43.5586 15.7244 44.0468 17.0785C44.9738 19.802 45.2955 22.7359 44.8329 25.5342H44.6955C44.2312 22.7603 43.6016 20.1168 42.6085 17.602C42.1424 16.3379 41.594 15.1057 40.9668 13.9133C40.3127 12.7142 39.5916 11.553 38.8068 10.435C38.009 9.30893 37.0313 8.32182 35.9129 7.5133C34.7859 6.70982 33.4903 6.18982 32.2364 5.69591C30.9825 5.20199 29.739 4.69591 28.4312 4.32026C27.1233 3.9446 25.7946 3.66286 24.4068 3.38982L24.4086 3.24547Z" fill="white"/>
<path d="M35.2589 16.068C33.6485 15.6019 31.9789 14.941 30.2885 14.2732C30.1911 13.8488 29.8154 13.3201 29.0554 12.6749C27.9511 11.7167 25.8763 11.741 24.0833 12.1654C22.1041 11.6993 20.1493 11.5341 18.2728 11.9914C2.925 16.2193 11.6276 26.5341 5.99283 36.9027C6.79456 38.6036 15.4363 48.5271 27.9406 45.8645C27.9406 45.8645 23.6641 35.588 33.3146 30.6558C41.1424 26.6401 46.798 19.2106 35.2589 16.068Z" fill="#8BC53F"/>
<path d="M37.1546 22.8175C37.1557 23.0015 37.1021 23.1817 37.0007 23.3353C36.8993 23.4889 36.7547 23.609 36.5851 23.6803C36.4155 23.7517 36.2285 23.7712 36.0478 23.7363C35.8671 23.7014 35.7008 23.6137 35.57 23.4843C35.4391 23.3549 35.3496 23.1896 35.3127 23.0094C35.2758 22.8291 35.2931 22.6419 35.3626 22.4715C35.4321 22.3011 35.5505 22.1551 35.7029 22.052C35.8554 21.9489 36.0349 21.8933 36.219 21.8923C36.4656 21.8914 36.7025 21.9882 36.8779 22.1616C37.0533 22.3351 37.1528 22.5709 37.1546 22.8175Z" fill="white"/>
<path d="M24.0832 12.1584C25.2015 12.2384 29.245 13.5497 30.2884 14.2662C29.4189 11.7445 26.4919 11.4088 24.0832 12.1584Z" fill="#009345"/>
<path d="M25.1475 18.5359C25.1478 19.3848 24.8964 20.2148 24.4251 20.9208C23.9537 21.6268 23.2836 22.1772 22.4995 22.5024C21.7153 22.8276 20.8523 22.9129 20.0197 22.7477C19.187 22.5824 18.422 22.1739 17.8215 21.5739C17.221 20.9739 16.8119 20.2092 16.646 19.3767C16.48 18.5442 16.5646 17.6811 16.8892 16.8967C17.2137 16.1123 17.7636 15.4417 18.4693 14.9698C19.1749 14.4979 20.0047 14.2458 20.8536 14.2455C21.9913 14.2455 23.0825 14.6972 23.8874 15.5014C24.6922 16.3056 25.1448 17.3964 25.1457 18.5341L25.1475 18.5359Z" fill="white"/>
<path d="M23.8744 18.574C23.8744 19.1711 23.6974 19.7548 23.3656 20.2513C23.0339 20.7478 22.5624 21.1348 22.0107 21.3633C21.459 21.5918 20.852 21.6516 20.2663 21.5351C19.6807 21.4186 19.1427 21.1311 18.7205 20.7088C18.2982 20.2866 18.0107 19.7486 17.8942 19.163C17.7777 18.5773 17.8375 17.9703 18.066 17.4186C18.2945 16.8669 18.6815 16.3954 19.178 16.0637C19.6745 15.7319 20.2582 15.5548 20.8553 15.5548C21.656 15.5548 22.424 15.8729 22.9902 16.4391C23.5563 17.0053 23.8744 17.7733 23.8744 18.574Z" fill="#58595B"/>
<path d="M40.631 24.7098C37.1527 27.1603 33.198 29.0194 27.5875 29.0194C24.9614 29.0194 24.4293 26.2368 22.6936 27.5968C21.798 28.3029 18.6397 29.882 16.1336 29.762C13.6275 29.642 9.56493 28.1742 8.43275 22.8229C7.98406 28.1742 7.75449 32.1133 5.73884 36.6298C9.73884 43.035 19.2762 47.9759 27.9336 45.8472C27.0101 39.3516 32.6954 32.9898 35.8849 29.7394C37.1023 28.5063 39.4154 26.4942 40.631 24.7116V24.7098Z" fill="#8BC53F"/>
<path d="M40.4953 24.8697C39.4153 25.854 38.1301 26.5827 36.8222 27.2262C35.4982 27.8541 34.1183 28.3566 32.7005 28.7271C31.2814 29.094 29.8014 29.3706 28.3022 29.2349C26.8031 29.0992 25.2709 28.5897 24.2779 27.4662L24.3249 27.4123C25.5422 28.2019 26.9475 28.4801 28.3457 28.5201C29.763 28.5637 31.1807 28.447 32.5718 28.1723C33.977 27.8777 35.3517 27.4527 36.6779 26.9027C38.0049 26.3549 39.3179 25.7201 40.4483 24.8158L40.4953 24.8697Z" fill="#58595B"/>
</svg>
