<svg width="48" height="48" viewBox="0 0 48 48" fill="none" xmlns="http://www.w3.org/2000/svg">
<rect width="48" height="48" rx="24" fill="#820FF5"/>
<path d="M12.7972 10C12.4062 10 12.0449 10.2063 11.8494 10.5413L10.9184 12.1364H14.8755C15.3207 12.1364 15.6952 12.3626 15.9177 12.7499L17.8385 16.1602C17.8505 16.181 17.8617 16.2017 17.8725 16.222L18.8535 14.5412C19.049 14.2062 19.049 13.7937 18.8535 13.4587L17.1507 10.5413C16.9552 10.2063 16.5937 10 16.203 10H12.7972Z" fill="white"/>
<path d="M20.3496 15.2913C20.5451 14.9563 20.9063 14.75 21.2973 14.75H24.7029C25.0939 14.75 25.4551 14.9563 25.6506 15.2913L27.3536 18.2087C27.5489 18.5437 27.5489 18.9562 27.3536 19.2912L25.6506 22.2087C25.4551 22.5437 25.0939 22.75 24.7029 22.75H21.2973C20.9063 22.75 20.5451 22.5437 20.3496 22.2087L18.6466 19.2912C18.4513 18.9562 18.4513 18.5437 18.6466 18.2087L20.3496 15.2913Z" fill="white"/>
<path d="M28.8495 10.5413C29.045 10.2063 29.4063 10 29.7973 10H33.2028C33.5938 10 33.955 10.2063 34.1505 10.5413L35.8536 13.4587C36.0488 13.7937 36.0488 14.2062 35.8536 14.5412L34.1505 17.4587C33.955 17.7937 33.5938 18 33.2028 18H29.7973C29.4063 18 29.045 17.7937 28.8495 17.4587L27.1465 14.5412C26.9512 14.2062 26.9512 13.7937 27.1465 13.4587L28.8495 10.5413Z" fill="white"/>
<path d="M20.3496 24.7913C20.5451 24.4563 20.9063 24.25 21.2973 24.25H24.7029C25.0939 24.25 25.4551 24.4563 25.6506 24.7913L27.3536 27.7088C27.5489 28.0438 27.5489 28.4563 27.3536 28.7913L25.6506 31.7087C25.4551 32.0437 25.0939 32.25 24.7029 32.25H21.2973C20.9063 32.25 20.5451 32.0437 20.3496 31.7087L18.6466 28.7913C18.4513 28.4563 18.4513 28.0438 18.6466 27.7088L20.3496 24.7913Z" fill="white"/>
<path d="M28.8495 20.0413C29.045 19.7063 29.4063 19.5 29.7973 19.5H33.2028C33.5938 19.5 33.955 19.7063 34.1505 20.0413L35.8536 22.9588C36.0488 23.2938 36.0488 23.7062 35.8536 24.0412L34.1505 26.9587C33.955 27.2937 33.5938 27.5 33.2028 27.5H29.7973C29.4063 27.5 29.045 27.2937 28.8495 26.9587L27.1465 24.0412C26.9512 23.7062 26.9512 23.2938 27.1465 22.9588L28.8495 20.0413Z" fill="white"/>
<path d="M11.8495 20.0413C12.045 19.7063 12.4062 19.5 12.7972 19.5H16.2027C16.5937 19.5 16.955 19.7063 17.1505 20.0413L18.8535 22.9588C19.0488 23.2938 19.0488 23.7062 18.8535 24.0412L17.1505 26.9587C16.955 27.2937 16.5937 27.5 16.2027 27.5H12.7972C12.4062 27.5 12.045 27.2937 11.8495 26.9587L10.1464 24.0412C9.95119 23.7062 9.95119 23.2938 10.1464 22.9588L11.8495 20.0413Z" fill="white"/>
<path d="M28.8495 29.5413C29.045 29.2063 29.4063 29 29.7973 29H33.2028C33.5938 29 33.955 29.2063 34.1505 29.5413L35.8536 32.4588C36.0488 32.7938 36.0488 33.2063 35.8536 33.5413L34.1505 36.4588C33.955 36.7938 33.5938 37 33.2028 37H29.7973C29.4063 37 29.045 36.7938 28.8495 36.4588L27.1465 33.5413C26.9512 33.2063 26.9512 32.7938 27.1465 32.4588L28.8495 29.5413Z" fill="white"/>
</svg>
