<svg width="48" height="48" viewBox="0 0 48 48" fill="none" xmlns="http://www.w3.org/2000/svg">
<rect width="48" height="48" rx="24" fill="#F2F3F6"/>
<path d="M9.9745 22.8145C9.97455 22.5461 10.0275 22.2803 10.1304 22.0325C10.2332 21.7846 10.3839 21.5596 10.5738 21.3703C10.7637 21.1809 10.9891 21.031 11.2369 20.9292C11.4848 20.8274 11.7503 20.7756 12.0182 20.7768L15.4065 20.7879C15.9467 20.7879 16.4648 21.0029 16.8469 21.3857C17.2289 21.7684 17.4435 22.2875 17.4435 22.8288V35.6657C17.8251 35.5524 18.3135 35.4316 18.8509 35.3048C19.2232 35.217 19.5551 35.0058 19.7926 34.7054C20.0301 34.405 20.1594 34.0331 20.1595 33.6498V17.7277C20.1595 17.1864 20.3741 16.6672 20.7561 16.2844C21.1381 15.9016 21.6562 15.6865 22.1965 15.6864H25.595C26.1353 15.6865 26.6534 15.9016 27.0354 16.2844C27.4174 16.6672 27.632 17.1864 27.632 17.7277V32.506C27.632 32.506 28.4822 32.1613 29.3099 31.8111C29.6175 31.6807 29.88 31.4626 30.0646 31.1838C30.2492 30.9049 30.3477 30.5779 30.348 30.2433V12.6254C30.348 12.0842 30.5626 11.5652 30.9445 11.1824C31.3264 10.7997 31.8444 10.5847 32.3846 10.5845H35.7796C36.3195 10.5851 36.8371 10.8003 37.2187 11.183C37.6003 11.5657 37.8146 12.0845 37.8146 12.6254V27.1331C40.758 24.996 43.7409 22.4254 46.1081 19.3347C46.4516 18.886 46.6788 18.3592 46.7696 17.8011C46.8604 17.2431 46.812 16.6712 46.6285 16.1365C45.5328 12.9781 43.791 10.0835 41.5146 7.63821C39.2381 5.19288 36.4773 3.25059 33.4087 1.93562C30.34 0.620645 27.0312 -0.0380462 23.6939 0.00169712C20.3566 0.0414404 17.0643 0.778741 14.0277 2.16642C10.9912 3.5541 8.27718 5.56159 6.05943 8.06044C3.84169 10.5593 2.16903 13.4945 1.1485 16.6781C0.127961 19.8618 -0.217975 23.2239 0.132822 26.5492C0.483619 29.8745 1.52343 33.0898 3.1857 35.9894C3.47531 36.4896 3.90139 36.8966 4.41388 37.1626C4.92637 37.4286 5.50398 37.5425 6.07886 37.491C6.72108 37.4344 7.52069 37.3543 8.47137 37.2426C8.88513 37.1954 9.26712 36.9974 9.54459 36.6863C9.82207 36.3753 9.97565 35.9728 9.97608 35.5556V22.8145" fill="#21325B"/>
<path d="M9.90198 43.4015C13.4805 46.0097 17.7095 47.5753 22.1211 47.925C26.5326 48.2747 30.9548 47.3949 34.8982 45.3829C38.8416 43.3709 42.1527 40.3052 44.465 36.5249C46.7772 32.7446 48.0007 28.3971 47.9998 23.9634C47.9998 23.4087 47.9741 22.8627 47.9374 22.3184C39.1729 35.4148 22.99 41.5373 9.90198 43.4015Z" fill="#979695"/>
</svg>
