<svg width="48" height="48" viewBox="0 0 48 48" fill="none" xmlns="http://www.w3.org/2000/svg">
<rect width="48" height="48" rx="24" fill="#FEDA03"/>
<path fill-rule="evenodd" clip-rule="evenodd" d="M35.6633 19.7107C35.6633 22.006 34.3223 23.1477 32.8152 23.5443C34.619 24.085 35.9244 25.5632 35.9244 27.9065V32.2087H29.0414V28.1228C29.0414 26.873 28.3056 26.3683 27.0477 26.3683H18.883V32.2087H12V15H28.3531C32.4591 15 35.6633 15.8892 35.6633 19.7107ZM18.8861 19.8079H28.1911V19.8087C28.205 19.8082 28.219 19.8079 28.233 19.8079C28.8728 19.8079 29.3915 20.3331 29.3915 20.9811C29.3915 21.629 28.8728 22.1542 28.233 22.1542C28.219 22.1542 28.205 22.154 28.1911 22.1535V22.1542H18.8861V19.8079Z" fill="black"/>
</svg>
