<svg width="48" height="48" viewBox="0 0 48 48" fill="none" xmlns="http://www.w3.org/2000/svg">
<rect width="48" height="48" rx="24" fill="#001833"/>
<path d="M27.2578 28.8633C27.2578 28.5501 27.2113 28.2708 27.1182 28.0254C27.0251 27.7715 26.8558 27.5387 26.6104 27.3271C26.3649 27.1156 26.0179 26.904 25.5693 26.6924C25.1208 26.4723 24.5326 26.248 23.8047 26.0195C22.9753 25.7487 22.1839 25.444 21.4307 25.1055C20.6859 24.7585 20.0215 24.3564 19.4375 23.8994C18.8535 23.4424 18.3923 22.9092 18.0537 22.2998C17.7236 21.6904 17.5586 20.9795 17.5586 20.167C17.5586 19.3799 17.7321 18.6689 18.0791 18.0342C18.4261 17.3994 18.9128 16.8577 19.5391 16.4092C20.1654 15.9521 20.9017 15.6051 21.748 15.3682C22.5944 15.1227 23.5254 15 24.541 15C25.8952 15 27.0843 15.2412 28.1084 15.7236C29.141 16.1976 29.945 16.8662 30.5205 17.7295C31.096 18.5843 31.3838 19.5788 31.3838 20.7129H27.2705C27.2705 20.2135 27.1647 19.7734 26.9531 19.3926C26.75 19.0033 26.4368 18.6986 26.0137 18.4785C25.599 18.2585 25.0785 18.1484 24.4521 18.1484C23.8428 18.1484 23.3307 18.2415 22.916 18.4277C22.5098 18.6055 22.2008 18.8509 21.9893 19.1641C21.7861 19.4772 21.6846 19.82 21.6846 20.1924C21.6846 20.4886 21.7607 20.7594 21.9131 21.0049C22.0739 21.2419 22.3024 21.4661 22.5986 21.6777C22.9033 21.8809 23.2757 22.0755 23.7158 22.2617C24.1559 22.4479 24.6595 22.6257 25.2266 22.7949C26.2168 23.1081 27.0928 23.4551 27.8545 23.8359C28.6247 24.2168 29.2721 24.6484 29.7969 25.1309C30.3216 25.6133 30.7152 26.1592 30.9775 26.7686C31.2484 27.3779 31.3838 28.0677 31.3838 28.8379C31.3838 29.6589 31.223 30.3867 30.9014 31.0215C30.5882 31.6562 30.1312 32.1979 29.5303 32.6465C28.9378 33.0866 28.2269 33.4209 27.3975 33.6494C26.568 33.8779 25.6413 33.9922 24.6172 33.9922C23.6862 33.9922 22.7679 33.8737 21.8623 33.6367C20.9567 33.3913 20.1357 33.0189 19.3994 32.5195C18.6715 32.0202 18.0876 31.3854 17.6475 30.6152C17.2158 29.8366 17 28.9141 17 27.8477H21.1387C21.1387 28.4062 21.2191 28.8802 21.3799 29.2695C21.5407 29.6504 21.7692 29.9593 22.0654 30.1963C22.3701 30.4333 22.7383 30.6025 23.1699 30.7041C23.6016 30.8057 24.084 30.8564 24.6172 30.8564C25.235 30.8564 25.7344 30.7718 26.1152 30.6025C26.5046 30.4248 26.7923 30.1836 26.9785 29.8789C27.1647 29.5742 27.2578 29.2357 27.2578 28.8633Z" fill="white"/>
</svg>
