<svg width="44" height="44" viewBox="0 0 44 44" fill="none" xmlns="http://www.w3.org/2000/svg">
<rect width="44" height="44" rx="22" fill="#F2F3F6"/>
<g opacity="0.993">
<path fill-rule="evenodd" clip-rule="evenodd" d="M23.6853 5.5C23.8396 5.5 23.994 5.5 24.1483 5.5C24.4507 5.55727 24.7063 5.70196 24.9152 5.93408C25.0013 6.19134 25.0447 6.45661 25.0454 6.72988C25.0262 8.34562 25.0069 9.96135 24.9875 11.5771C24.9892 11.845 25.0326 12.1054 25.1177 12.3584C26.6901 14.0079 28.301 15.6188 29.9505 17.1911C30.2952 17.5982 30.3145 18.0226 30.0083 18.4644C29.8161 18.7026 29.5798 18.8811 29.2994 18.9998C29.0533 19.079 28.8217 19.05 28.6048 18.913C26.4151 16.7619 24.2448 14.5915 22.0937 12.4018C21.7419 12.0896 21.3849 12.08 21.023 12.3729C19.3277 14.0585 17.6444 15.7514 15.9732 17.4516C15.8509 17.6317 15.8219 17.8247 15.8864 18.0303C15.9521 18.1634 16.0292 18.2888 16.1179 18.4065C18.3084 20.5874 20.4884 22.777 22.658 24.9756C22.7898 25.3455 22.7319 25.6832 22.4843 25.9884C22.3087 26.2125 22.0917 26.3813 21.8332 26.4948C21.5817 26.6036 21.3406 26.5843 21.1098 26.437C20.994 26.3405 20.8783 26.244 20.7625 26.1476C18.24 23.5865 15.6983 21.0448 13.1372 18.5223C13.0125 18.3592 12.9112 18.1856 12.8334 18.0014C12.8334 17.905 12.8334 17.8085 12.8334 17.712C12.8748 17.5876 12.9375 17.4718 13.0215 17.3648C14.6718 15.7241 16.3116 14.0746 17.941 12.4163C18.0671 12.1566 18.1202 11.8817 18.1002 11.5915C18.082 9.96595 18.0627 8.34058 18.0423 6.71541C18.0585 6.51175 18.0826 6.30918 18.1146 6.10771C18.2409 5.7712 18.4868 5.5831 18.8526 5.54341C19.2059 5.49102 19.5435 5.53925 19.8654 5.6881C20.1167 5.84282 20.2372 6.06951 20.2271 6.36815C20.232 7.60297 20.2464 8.83767 20.2706 10.0723C20.5454 9.79264 20.8348 9.52736 21.1387 9.27647C21.3937 9.0787 21.6541 9.06906 21.92 9.24753C22.2335 9.54175 22.5471 9.83593 22.8605 10.1302C22.911 9.10799 22.9158 8.08549 22.875 7.06268C22.8724 6.74318 22.8868 6.42485 22.9184 6.10771C22.9599 5.95256 23.0419 5.82234 23.1644 5.71704C23.3305 5.6193 23.5041 5.54696 23.6853 5.5Z" fill="#8A5FF3"/>
<path fill-rule="evenodd" clip-rule="evenodd" d="M23.9457 37.7085C23.9361 37.7085 23.9264 37.7085 23.9168 37.7085C23.561 37.6943 23.2475 37.569 22.9763 37.3323C22.9205 37.2324 22.8819 37.1265 22.8605 37.014C22.8254 35.7187 22.811 34.4261 22.8171 33.1362C22.5128 33.4165 22.2041 33.6914 21.8911 33.961C21.6392 34.1344 21.3884 34.1344 21.1387 33.961C20.8349 33.6764 20.531 33.3918 20.2271 33.1073C20.1875 33.5339 20.1634 33.9631 20.1548 34.395C20.1713 34.8867 20.1809 35.3787 20.1837 35.8709C20.1873 36.3015 20.1729 36.7307 20.1403 37.1587C20.0509 37.4313 19.8628 37.5904 19.576 37.6361C19.4373 37.6622 19.3022 37.6865 19.1709 37.7085C19.1516 37.7085 19.1323 37.7085 19.113 37.7085C18.7487 37.6978 18.4352 37.5626 18.1725 37.3033C18.1356 37.2391 18.1067 37.1717 18.0857 37.1008C18.0526 36.2335 18.0382 35.3653 18.0423 34.4963C18.0438 33.5605 18.0534 32.6248 18.0712 31.6893C18.0893 31.3766 18.0362 31.0776 17.9121 30.7922C17.6323 30.4932 17.3526 30.1941 17.0729 29.8951C15.7224 28.5639 14.3719 27.2328 13.0215 25.9016C12.9502 25.7878 12.8875 25.672 12.8334 25.5543C12.8334 25.4386 12.8334 25.3228 12.8334 25.2071C13.0332 24.6215 13.4383 24.2742 14.0488 24.1653C14.2002 24.1595 14.3352 24.2029 14.4539 24.2955C16.6717 26.4844 18.8807 28.6837 21.0808 30.8935C21.3369 31.1184 21.607 31.1377 21.8911 30.9514C23.6627 29.2183 25.4135 27.4675 27.1434 25.699C27.2484 25.5343 27.2677 25.3607 27.2013 25.1781C27.141 25.0671 27.0735 24.961 26.9987 24.8598C24.7866 22.667 22.5969 20.458 20.4297 18.2329C20.2632 17.866 20.3114 17.5283 20.5744 17.2201C20.8358 16.8917 21.1735 16.6987 21.5873 16.6413C21.8004 16.6828 21.9885 16.7744 22.1516 16.9162C24.7311 19.5247 27.3211 22.1244 29.9215 24.7151C30.063 24.8664 30.1691 25.0401 30.2398 25.236C30.2755 25.457 30.2176 25.65 30.0662 25.8148C28.5509 27.3783 27.0076 28.912 25.4361 30.416C25.299 30.5647 25.1832 30.7287 25.0888 30.908C25.0413 31.0587 25.0124 31.213 25.002 31.371C24.9795 33.0543 24.9843 34.7377 25.0165 36.4207C25.0359 36.7385 24.9828 37.0423 24.8573 37.3323C24.5997 37.5739 24.2958 37.6995 23.9457 37.7085Z" fill="#8A5FF3"/>
</g>
</svg>
