<svg width="48" height="48" viewBox="0 0 48 48" fill="none" xmlns="http://www.w3.org/2000/svg">
<rect width="48" height="48" rx="24" fill="#F2F3F6"/>
<path d="M21.7082 37.7117L26.8166 32.5933C27.3949 32.0133 27.3949 31.0742 26.8166 30.4942L13.3041 16.9558C12.7257 16.3758 11.7874 16.3758 11.2091 16.9558L6.10074 22.0742C5.52241 22.6542 5.52241 23.5933 6.10074 24.1733L19.6132 37.7117C20.1916 38.2917 21.1291 38.2917 21.7082 37.7117Z" fill="#0D47A1"/>
<path d="M19.6566 37.7483L14.4707 32.5525C13.9132 31.9942 13.9132 31.0892 14.4707 30.5308L33.8782 11.085C34.4357 10.5267 35.3391 10.5267 35.8957 11.085L41.0816 16.2808C41.6391 16.8392 41.6391 17.7442 41.0816 18.3025L21.6741 37.7483C21.1174 38.3058 20.2141 38.3058 19.6566 37.7483Z" fill="#29B6F6"/>
</svg>
