<svg width="48" height="48" viewBox="0 0 48 48" fill="none" xmlns="http://www.w3.org/2000/svg">
<rect width="48" height="48" rx="24" fill="#F2F3F6"/>
<path d="M18.5338 13.3703C18.2315 13.3255 18.2147 13.3143 18.3603 13.2976C18.6346 13.2528 19.2727 13.3143 19.7205 13.4151C20.7617 13.6614 21.6965 14.294 22.6929 15.4079L22.9504 15.7102L23.3255 15.6542C24.9264 15.3967 26.5722 15.5982 27.9492 16.2308C28.3242 16.4043 28.9176 16.7514 28.9904 16.8353C29.0184 16.8633 29.0632 17.0536 29.0911 17.2384C29.1919 17.9157 29.1471 18.4251 28.9344 18.8113C28.8169 19.0296 28.8169 19.0856 28.8896 19.2759C28.9456 19.4215 29.1191 19.5222 29.2815 19.5222C29.6285 19.5222 29.9868 18.9737 30.1603 18.2068L30.2331 17.9045L30.3618 18.05C31.1007 18.8729 31.6773 20.0148 31.7613 20.8209L31.7893 21.0392L31.6605 20.8489C31.4422 20.5186 31.2407 20.3003 30.9664 20.11C30.4738 19.7797 29.9532 19.679 28.5817 19.6062C27.339 19.5334 26.6337 19.4327 25.9396 19.2032C24.7529 18.8113 24.1483 18.3075 22.7489 16.4435C22.1275 15.6206 21.7357 15.1728 21.3495 14.7978C20.4986 13.9749 19.6422 13.5439 18.5338 13.3703Z" fill="#FF007A"/>
<path d="M29.2928 15.2007C29.3208 14.6521 29.3935 14.2882 29.5503 13.958C29.6062 13.8292 29.6678 13.7117 29.679 13.7117C29.6958 13.7117 29.6622 13.8124 29.623 13.93C29.5055 14.2491 29.4943 14.6969 29.5671 15.2007C29.6678 15.85 29.7126 15.9396 30.4067 16.6449C30.7258 16.9752 31.1008 17.395 31.2464 17.5685L31.4927 17.8876L31.2464 17.6581C30.9441 17.367 30.25 16.8184 30.0932 16.7456C29.9925 16.6897 29.9757 16.6897 29.9029 16.7624C29.8469 16.8184 29.8301 16.908 29.8301 17.3278C29.8134 17.9772 29.7294 18.3802 29.5111 18.8C29.3935 19.0183 29.3823 18.9735 29.4831 18.7272C29.5559 18.5369 29.5671 18.453 29.5671 17.8316C29.5671 16.5777 29.4215 16.2698 28.5427 15.766C28.3244 15.6373 27.9493 15.447 27.7366 15.3462C27.5071 15.2455 27.3336 15.1559 27.3448 15.1559C27.3727 15.1279 28.2236 15.3742 28.5595 15.5141C29.0633 15.7157 29.1528 15.7325 29.2088 15.7157C29.248 15.6821 29.276 15.5645 29.2928 15.2007Z" fill="#FF007A"/>
<path d="M19.1272 17.356C18.5227 16.5164 18.1308 15.2177 18.2148 14.2493L18.2428 13.947L18.3883 13.975C18.6458 14.0198 19.0936 14.1933 19.312 14.3221C19.8885 14.6691 20.1516 15.1449 20.3923 16.3317C20.4651 16.6787 20.5658 17.0818 20.6106 17.2105C20.6834 17.4288 20.9577 17.9326 21.1872 18.2517C21.3439 18.4812 21.2432 18.5987 20.8849 18.5708C20.3363 18.5092 19.603 18.0054 19.1272 17.356Z" fill="#FF007A"/>
<path d="M28.5538 23.6365C25.6934 22.4834 24.6858 21.487 24.6858 19.7965C24.6858 19.5502 24.7026 19.3486 24.7026 19.3486C24.7194 19.3486 24.8201 19.4326 24.9489 19.539C25.5255 20.0036 26.1748 20.2051 27.9829 20.4626C29.0352 20.6193 29.6454 20.7369 30.194 20.9272C31.9405 21.5038 33.0264 22.6905 33.2839 24.2914C33.3567 24.7561 33.3119 25.6349 33.2 26.0939C33.0992 26.4522 32.8081 27.1183 32.7353 27.1351C32.7186 27.1351 32.6906 27.0623 32.6906 26.9448C32.6626 26.3402 32.3603 25.758 31.8509 25.3102C31.2407 24.7952 30.4627 24.4034 28.5538 23.6365Z" fill="#FF007A"/>
<path d="M26.533 24.1122C26.505 23.8939 26.4322 23.6196 26.3874 23.5076L26.3147 23.2893L26.4434 23.446C26.6337 23.6644 26.7737 23.9219 26.908 24.2857C27.0088 24.56 27.0088 24.644 27.0088 25.0918C27.0088 25.5228 26.992 25.6236 26.908 25.8699C26.7625 26.2617 26.5889 26.536 26.3035 26.8383C25.7829 27.3701 25.1055 27.6611 24.1371 27.7899C23.9636 27.8067 23.471 27.8459 23.04 27.8739C21.9596 27.9298 21.2375 28.0474 20.5826 28.2769C20.4986 28.3049 20.409 28.3329 20.3922 28.3217C20.3643 28.2937 20.8121 28.0306 21.1703 27.8571C21.6741 27.6108 22.1947 27.482 23.3367 27.2805C23.902 27.1965 24.4786 27.079 24.6241 27.023C26.0572 26.5808 26.7625 25.4724 26.533 24.1122Z" fill="#FF007A"/>
<path d="M27.8485 26.441C27.4734 25.6181 27.3839 24.84 27.591 24.1011C27.619 24.0283 27.647 23.9556 27.6749 23.9556C27.7029 23.9556 27.7925 24.0003 27.8765 24.0563C28.05 24.1739 28.4083 24.3754 29.3375 24.8792C30.5074 25.5173 31.1735 26.0043 31.6326 26.5697C32.0356 27.0623 32.2819 27.6221 32.3994 28.3162C32.4722 28.7081 32.4274 29.6429 32.3267 30.0347C32.0076 31.2606 31.2855 32.2458 30.2331 32.8056C30.0764 32.8896 29.942 32.9511 29.9308 32.9511C29.9196 32.9511 29.9756 32.8056 30.0596 32.6321C30.4066 31.8932 30.4514 31.1879 30.1883 30.393C30.0316 29.9004 29.6957 29.3126 29.0352 28.3106C28.2347 27.1631 28.05 26.8552 27.8485 26.441Z" fill="#FF007A"/>
<path d="M17.0896 30.8576C18.1588 29.962 19.4743 29.3294 20.6834 29.1223C21.204 29.0383 22.0716 29.0663 22.5474 29.1951C23.3143 29.3966 24.0084 29.8332 24.3667 30.365C24.7138 30.8856 24.8705 31.3334 25.0328 32.3298C25.0888 32.7216 25.1616 33.1247 25.1784 33.2087C25.2959 33.7292 25.5254 34.1323 25.8165 34.3506C26.2643 34.6809 27.0424 34.6977 27.8093 34.4066C27.9381 34.3618 28.0556 34.3226 28.0556 34.3338C28.0836 34.3618 27.6974 34.6249 27.4343 34.7536C27.076 34.944 26.7849 34.9999 26.3931 34.9999C25.699 34.9999 25.1056 34.6417 24.6298 33.9196C24.529 33.774 24.3275 33.3542 24.154 32.968C23.6502 31.798 23.3871 31.451 22.7937 31.0591C22.2731 30.7289 21.607 30.6561 21.1032 30.9024C20.4371 31.2215 20.2636 32.0723 20.7282 32.5929C20.9185 32.8112 21.26 32.9847 21.551 33.0239C22.0828 33.0967 22.5474 32.6769 22.5474 32.1451C22.5474 31.798 22.4187 31.5965 22.0716 31.4398C21.607 31.2382 21.1032 31.4678 21.12 31.9156C21.12 32.1059 21.204 32.2179 21.3943 32.3074C21.5118 32.3634 21.5118 32.3634 21.4223 32.3522C21.0025 32.2682 20.9017 31.7476 21.232 31.4118C21.635 31.0087 22.4859 31.1823 22.7769 31.742C22.8945 31.9716 22.9057 32.4362 22.8049 32.7216C22.5586 33.3598 21.8645 33.6901 21.1592 33.4997C20.6834 33.371 20.4819 33.2422 19.9053 32.6489C18.8921 31.6077 18.5059 31.4062 17.0616 31.1879L16.7874 31.1431L17.0896 30.8576Z" fill="#FF007A"/>
<path fill-rule="evenodd" clip-rule="evenodd" d="M9.49345 7.62135C12.8577 11.7077 18.0412 18.0611 18.3043 18.4082C18.5226 18.6993 18.433 18.9736 18.0748 19.1751C17.8733 19.2926 17.4534 19.4046 17.2519 19.4046C17.0224 19.4046 16.7481 19.287 16.5578 19.1023C16.4291 18.9736 15.8637 18.1507 14.593 16.1691C13.6246 14.6521 12.8017 13.3982 12.7905 13.3814C12.7345 13.3534 12.7345 13.3534 14.4922 16.4994C15.6062 18.4754 15.9644 19.1863 15.9644 19.2703C15.9644 19.4606 15.9085 19.5613 15.6734 19.8188C15.2815 20.2499 15.108 20.7425 14.9792 21.7668C14.8337 22.9088 14.4475 23.7149 13.3335 25.0863C12.6842 25.8924 12.5834 26.0379 12.4211 26.3738C12.2196 26.7768 12.1636 27.0119 12.13 27.5269C12.102 28.0755 12.158 28.4226 12.3203 28.9432C12.4659 29.4078 12.6226 29.71 13.0144 30.3034C13.3447 30.824 13.5462 31.2158 13.5462 31.3558C13.5462 31.4733 13.5742 31.4733 14.0948 31.3558C15.3375 31.0647 16.3619 30.5777 16.9273 29.9675C17.2743 29.5925 17.3583 29.391 17.3583 28.8704C17.3583 28.5401 17.3415 28.4673 17.2575 28.2658C17.112 27.9468 16.8377 27.6893 16.2443 27.2862C15.4662 26.7544 15.1304 26.3178 15.0464 25.7412C14.9736 25.2486 15.0632 24.9184 15.4942 24.0059C15.942 23.0655 16.0596 22.6793 16.1324 21.7221C16.1772 21.1175 16.2499 20.8712 16.4235 20.6809C16.6138 20.4794 16.7705 20.4066 17.2183 20.3506C17.9572 20.2499 18.433 20.0595 18.8081 19.7013C19.1384 19.399 19.2839 19.0967 19.3007 18.6489L19.3175 18.3186L19.1272 18.1171C18.4442 17.339 9.04563 7 9.00085 7C8.98405 7 9.21916 7.27429 9.49345 7.62135ZM13.9269 28.1595C14.0836 27.8852 13.9996 27.5381 13.7365 27.3646C13.4902 27.2079 13.1152 27.2806 13.1152 27.4933C13.1152 27.5493 13.1432 27.6109 13.2327 27.6389C13.3615 27.7117 13.3783 27.7844 13.2775 27.9412C13.1768 28.0979 13.1768 28.2434 13.3055 28.3442C13.507 28.5065 13.7813 28.417 13.9269 28.1595Z" fill="#FF007A"/>
<path fill-rule="evenodd" clip-rule="evenodd" d="M19.7765 20.5633C19.4294 20.6641 19.0991 21.0391 18.9984 21.4142C18.9424 21.6437 18.9704 22.0635 19.0712 22.1923C19.2279 22.3938 19.3734 22.4498 19.7765 22.4498C20.5714 22.4498 21.2487 22.1027 21.3215 21.6829C21.3942 21.3358 21.0919 20.86 20.6721 20.6417C20.4538 20.5297 20.006 20.4905 19.7765 20.5633ZM20.7001 21.2854C20.8177 21.1119 20.7729 20.9272 20.5546 20.7928C20.1627 20.5465 19.575 20.748 19.575 21.1231C19.575 21.3134 19.8772 21.5149 20.1683 21.5149C20.353 21.5149 20.6105 21.3974 20.7001 21.2854Z" fill="#FF007A"/>
</svg>
