<svg width="48" height="48" viewBox="0 0 48 48" fill="none" xmlns="http://www.w3.org/2000/svg">
<path d="M30.1007 7.03081C30.1007 7.03081 29.1553 8.04941 28.7878 8.57677C28.4203 9.10413 29.2516 9.0066 29.8688 8.14693C30.486 7.28726 31.0105 7.26559 31.0105 7.26559L31.9951 7.34505C31.9951 7.34505 33.1154 9.05717 33.6362 10.8199C34.1571 12.5825 35.8981 15.1941 36.4476 15.5444C36.997 15.8948 37.1147 16.5703 37.1432 16.8376C37.1718 17.1012 38.1279 17.6286 38.1279 17.8345C38.1279 18.0404 38.1279 19.2721 38.1279 19.2721C38.1279 19.2721 41.3174 19.0084 42.3306 18.2752C43.3438 17.5419 43.0834 19.0987 42.3306 20.0378C41.5778 20.977 40.793 22.3279 40.9392 22.913C41.0855 23.5018 40.504 23.4404 40.0116 23.5596C39.5193 23.6752 36.4333 25.8496 35.8446 27.9049C35.256 29.9602 34.8528 30.4297 35.4879 31.2208C36.1265 32.0118 37.286 32.6873 37.1968 33.5108C37.1111 34.3344 36.8186 34.3633 36.0658 34.5078C35.313 34.6559 35.0205 34.9484 34.9919 35.1543C34.9634 35.3602 33.6006 35.5661 33.5435 35.6817C33.4864 35.8009 35.4308 37.3324 33.1225 40.0198C32.8549 40.3304 32.4125 40.7566 32.4125 40.7566C32.4125 40.7566 31.3101 41.8439 30.2969 43.0467C29.2837 44.2495 29.4835 44.6613 28.2955 44.6613C27.1074 44.6613 26.1798 45.4234 25.3093 44.6613C24.4388 43.8991 24.1213 43.751 24.1498 43.1659C24.1784 42.5771 23.1652 42.0497 22.9618 41.5224C22.7585 40.995 21.888 39.2612 22.498 39.2323C23.1081 39.2034 23.0795 38.528 22.6728 38.2643C22.2661 38.0006 22.0913 38.3799 21.9201 37.9103C21.7452 37.4408 21.6311 37.0001 21.5419 36.5305C21.4563 36.0609 21.3671 36.6461 20.9925 35.5625C20.6143 34.4753 20.3539 33.8901 20.443 33.4783C20.5287 33.0665 21.1387 32.4525 21.6311 32.1852C22.1234 31.9215 22.9083 31.3039 22.3839 30.8921C21.863 30.4803 21.4277 30.8921 21.3992 30.3647C21.3706 29.8374 21.4277 28.779 20.9639 28.2228C20.5001 27.6665 20.2112 28.1939 19.6582 27.3125C19.1087 26.4312 18.6521 25.3078 19.1944 24.7588C19.7367 24.2098 20.0078 24.6432 20.1612 23.7402C20.3146 22.8408 20.047 22.5663 20.2397 22.252C20.4323 21.9378 18.9803 21.4285 18.9518 21.8619C18.9232 22.2918 18.0741 22.8011 17.5711 22.7613C17.068 22.7216 17.068 21.9378 16.6435 21.703C16.2189 21.4682 15.7944 20.9986 15.2521 21.6633C14.7098 22.3279 14.403 22.5229 13.6681 22.5229C12.9331 22.5229 12.4301 22.2087 11.8914 22.2882C11.3491 22.3676 10.4822 22.2701 10.4429 22.9925C10.4037 23.7149 9.59381 23.7149 9.14785 22.8155C8.70189 21.9161 8.4914 22.3062 7.98836 21.8944C7.48532 21.4827 7.37115 20.2184 7.03579 19.7308C6.704 19.2468 5.71576 18.7339 5.26624 18.4232C4.81672 18.1162 5.02007 15.8659 5.26624 15.6889C5.51241 15.5119 6.28659 15.2374 6.09393 14.6306C5.90128 14.0238 5.47673 13.3591 5.28051 13.3013C5.08785 13.2436 5.33759 11.8132 5.7443 11.6398C6.15102 11.4628 6.71114 11.21 6.71114 10.7007C6.71114 10.1914 6.26518 8.40339 6.81817 8.49008C7.36759 8.57677 8.58772 8.40339 8.81962 8.02051C9.05152 7.63763 10.1539 5.11641 11.8628 5.14531C13.5717 5.1742 13.0794 5.90745 13.6895 5.14531C14.2995 4.38316 15.0809 4.17727 15.7766 3.91359C16.4722 3.64991 16.4722 2.94556 17.0538 3.00336C17.6353 3.06115 17.6032 3.59212 17.9528 3.94249C18.2989 4.29286 19.0267 3.7944 19.6332 4.00029C20.2433 4.20617 20.6785 4.67574 20.7071 4.99721C20.7356 5.31869 20.097 5.38009 20.0684 5.52457C20.0399 5.67267 19.8651 5.96525 20.386 6.20003C20.9068 6.43481 23.2936 7.52204 24 7.69542C24.7064 7.87241 24.8206 7.69542 25.8088 6.90438C26.7935 6.11334 27.0254 6.20003 27.4321 6.6696C27.8388 7.15 30.4503 6.64431 30.1007 7.03081Z" fill="#18A18B"/>
<path d="M42.334 18.2713C41.3208 19.0046 38.1313 19.2683 38.1313 19.2683C38.1313 19.2683 38.1313 18.0366 38.1313 17.8307C38.1313 17.6248 37.1752 17.0974 37.1467 16.8337C37.1181 16.5701 37.0004 15.8946 36.451 15.5406C35.9016 15.1903 34.1605 12.5751 33.6397 10.816C33.1188 9.05336 31.9985 7.34125 31.9985 7.34125L31.0139 7.26178C31.0139 7.26178 30.493 7.27984 29.8722 8.14312C29.255 9.00279 28.4237 9.10032 28.7912 8.57296C29.1587 8.0456 30.1041 7.027 30.1041 7.027C30.4573 6.64051 27.8422 7.14258 27.4355 6.67301C27.0288 6.20345 26.7969 6.11676 25.8122 6.9078C24.8275 7.69884 24.7098 7.87583 24.0034 7.69884C23.297 7.52185 20.9103 6.43823 20.3894 6.20345C19.8685 5.96866 20.0398 5.67609 20.0719 5.52799C20.1004 5.3799 20.739 5.3221 20.7105 5.00063C20.6819 4.67916 20.2467 4.20959 19.6366 4.0037C19.0265 3.79781 18.3023 4.29628 17.9562 3.94591C17.6066 3.59554 17.6387 3.06457 17.0572 3.00677C16.4757 2.94898 16.4757 3.65333 15.78 3.91701C15.0843 4.18069 14.303 4.38658 13.6929 5.14873C13.0828 5.91087 13.5787 5.17762 11.8663 5.14873C10.1573 5.11983 9.05494 7.64466 8.82305 8.02393C8.59115 8.40681 7.37458 8.58018 6.82159 8.49349C6.27217 8.4068 6.71456 10.1948 6.71456 10.7041C6.71456 11.2134 6.15444 11.4662 5.74772 11.6432C5.34101 11.8202 5.09128 13.247 5.28393 13.3048C5.47658 13.3626 5.90114 14.0272 6.09736 14.634C6.29001 15.2408 5.51583 15.5153 5.26966 15.6923C5.02349 15.8693 4.82013 18.1196 5.26966 18.4267C5.71918 18.7337 6.70386 19.2502 7.03922 19.7342C7.37101 20.2182 7.48874 21.4861 7.99178 21.8979C8.49482 22.3096 8.70531 21.9159 9.15127 22.8189C9.59723 23.7183 10.4071 23.7183 10.4463 22.9959C10.4856 22.2735 11.3561 22.371 11.8948 22.2916C12.4371 22.2121 12.9401 22.5264 13.6715 22.5264C14.4064 22.5264 14.7168 22.3313 15.2555 21.6667C15.7978 21.0021 16.2224 21.4716 16.6469 21.7064C17.0715 21.9412 17.0715 22.725 17.5745 22.7647C18.0775 22.8045 18.9266 22.2952 18.9552 21.8653C18.9837 21.4355 20.4358 21.9448 20.2431 22.2555C20.1539 22.3999 20.1646 22.5408 20.186 22.7395C25.9193 20.9226 32.1769 22.5408 37.1003 25.8711C38.2241 24.6214 39.6868 23.6389 40.0151 23.5594C40.5074 23.4438 41.0889 23.5016 40.9426 22.9128C40.7964 22.3277 41.5813 20.9768 42.334 20.0376C43.0868 19.0949 43.3473 17.5381 42.334 18.2713Z" fill="#C53C29"/>
<path d="M38.1279 18.6868C38.1279 18.3364 38.1279 17.9427 38.1279 17.8343C38.1279 17.6285 37.1718 17.1011 37.1432 16.8374C37.1147 16.5737 36.997 15.8983 36.4476 15.5443C35.8981 15.1939 34.1571 12.5788 33.6362 10.8197C33.1154 9.05703 31.9951 7.34491 31.9951 7.34491L31.0105 7.26544C31.0105 7.26544 30.4896 7.28351 29.8688 8.14679C29.2516 9.00646 28.4203 9.10399 28.7878 8.57662C29.1553 8.04926 30.1007 7.03066 30.1007 7.03066C30.4539 6.64417 27.8388 7.14625 27.4321 6.67668C27.0254 6.20711 26.7935 6.12042 25.8088 6.91146C24.8241 7.70251 24.7064 7.8795 24 7.70251C23.2936 7.52552 20.9068 6.44189 20.386 6.20711C19.8651 5.97233 20.0363 5.67975 20.0684 5.53166C20.097 5.38356 20.7356 5.32577 20.7071 5.0043C20.6785 4.68282 20.2433 4.21325 19.6332 4.00737C19.0231 3.80148 18.2989 4.29994 17.9528 3.94957C17.6032 3.5992 17.6353 3.06823 17.0538 3.01044C16.4722 2.95264 16.4722 3.657 15.7766 3.92068C15.0809 4.18436 14.2995 4.39024 13.6895 5.15239C13.0794 5.91453 13.5753 5.18128 11.8628 5.15239C10.1539 5.12349 9.05152 7.64832 8.81962 8.02759C8.58773 8.41047 7.37115 8.58385 6.81817 8.49716C6.26875 8.41047 6.71114 10.1984 6.71114 10.7077C6.71114 11.217 6.15102 11.4699 5.7443 11.6469C5.33759 11.8239 5.08785 13.2506 5.28051 13.3084C5.47316 13.3662 5.89771 14.0308 6.09393 14.6377C6.28659 15.2445 5.51241 15.519 5.26624 15.696C5.02007 15.873 4.81672 18.1233 5.26624 18.4303C5.71576 18.7374 6.70043 19.2539 7.03579 19.7379C7.36759 20.2219 7.48532 21.4897 7.98836 21.9015C8.4914 22.3133 8.70189 21.9196 9.14785 22.8226C9.59381 23.722 10.4037 23.722 10.4429 22.9996C10.4822 22.2772 11.3527 22.3747 11.8914 22.2952C12.4337 22.2158 12.9367 22.53 13.6681 22.53C14.403 22.53 14.7134 22.335 15.2521 21.6703C15.7944 21.0057 16.2189 21.4753 16.6435 21.7101C17.068 21.9449 17.0681 22.7287 17.5711 22.7684C18.0741 22.8081 18.9232 22.2988 18.9518 21.869C18.9803 21.4392 20.4323 21.9485 20.2397 22.2591C20.047 22.5734 20.3182 22.8479 20.1612 23.7473C20.0078 24.6467 19.7367 24.2169 19.1944 24.7659C18.6521 25.3149 19.1087 26.4383 19.6582 27.3196C19.7331 27.4388 19.8044 27.5327 19.8687 27.605C21.6204 20.2616 31.1425 17.8994 38.1279 18.6868Z" fill="#D56D20"/>
<path d="M38.1279 17.8307C38.1279 17.6248 37.1718 17.0974 37.1432 16.8337C37.1147 16.5701 36.997 15.8946 36.4476 15.5406C35.8981 15.1903 34.1571 12.5751 33.6362 10.8161C33.1154 9.05336 31.9951 7.34125 31.9951 7.34125L31.0105 7.26178C31.0105 7.26178 30.4896 7.27984 29.8688 8.14312C29.2516 9.00279 28.4203 9.10032 28.7878 8.57296C29.1553 8.0456 30.1007 7.027 30.1007 7.027C30.4539 6.64051 27.8388 7.14258 27.4321 6.67301C27.0254 6.20345 26.7935 6.11676 25.8088 6.9078C24.8241 7.69884 24.7064 7.87583 24 7.69884C23.2936 7.52185 20.9068 6.43823 20.386 6.20345C19.8651 5.96866 20.0363 5.67609 20.0684 5.52799C20.097 5.3799 20.7356 5.3221 20.7071 5.00063C20.6785 4.67916 20.2433 4.20959 19.6332 4.0037C19.0231 3.79781 18.2989 4.29628 17.9528 3.94591C17.6032 3.59554 17.6353 3.06457 17.0538 3.00677C16.4722 2.94898 16.4722 3.65333 15.7766 3.91701C15.0809 4.18069 14.2995 4.38658 13.6895 5.14873C13.0794 5.91087 13.5753 5.17762 11.8628 5.14873C10.1539 5.11983 9.05152 7.64466 8.81962 8.02393C8.58773 8.40681 7.37115 8.58018 6.81817 8.49349C6.26875 8.40681 6.71114 10.1948 6.71114 10.7041C6.71114 11.2134 6.15102 11.4662 5.7443 11.6432C5.33759 11.8202 5.08785 13.247 5.28051 13.3048C5.47316 13.3626 5.89771 14.0272 6.09393 14.634C6.28659 15.2408 5.51241 15.5153 5.26624 15.6923C5.02007 15.8693 4.81672 18.1196 5.26624 18.4267C5.71576 18.7337 6.70043 19.2502 7.03579 19.7342C7.13569 19.8823 7.21775 20.1027 7.29624 20.3483C10.9424 18.0655 20.1897 14.2475 38.1279 17.9101C38.1279 17.8812 38.1279 17.8487 38.1279 17.8307Z" fill="#FFD62C"/>
<path d="M33.7504 11.1628C33.7076 11.0436 33.6684 10.928 33.6362 10.8161C33.1154 9.05336 31.9951 7.34125 31.9951 7.34125L31.0105 7.26178C31.0105 7.26178 30.4896 7.27984 29.8688 8.14312C29.2516 9.00279 28.4203 9.10032 28.7878 8.57296C29.1553 8.0456 30.1007 7.027 30.1007 7.027C30.4539 6.64051 27.8388 7.14258 27.4321 6.67301C27.0254 6.20345 26.7935 6.11676 25.8088 6.9078C24.8241 7.69884 24.7064 7.87583 24 7.69884C23.2936 7.52185 20.9068 6.43823 20.386 6.20345C19.8651 5.96866 20.0363 5.67609 20.0684 5.52799C20.097 5.3799 20.7356 5.3221 20.7071 5.00063C20.6785 4.67916 20.2433 4.20959 19.6332 4.0037C19.0231 3.79781 18.2989 4.29628 17.9528 3.94591C17.6032 3.59554 17.6353 3.06457 17.0538 3.00677C16.4722 2.94898 16.4722 3.65333 15.7766 3.91701C15.0809 4.18069 14.2995 4.38658 13.6895 5.14873C13.0794 5.91087 13.5753 5.17762 11.8628 5.14873C10.1539 5.11983 9.05152 7.64466 8.81962 8.02393C8.58773 8.40681 7.37115 8.58018 6.81817 8.49349C6.26875 8.40681 6.71114 10.1948 6.71114 10.7041C6.71114 11.2134 6.15102 11.4662 5.7443 11.6432C5.33759 11.8202 5.08785 13.247 5.28051 13.3048C5.47316 13.3626 5.89771 14.0272 6.09393 14.634C6.28659 15.2408 5.51241 15.5153 5.26624 15.6923C5.02007 15.8693 4.81672 18.1196 5.26624 18.4267C5.3804 18.5061 5.53024 18.5964 5.69792 18.7012C8.07398 15.9741 16.6613 7.96974 33.7504 11.1628Z" fill="#731820"/>
</svg>
