<?xml version="1.0" encoding="UTF-8" standalone="no"?>
<svg
   width="18"
   height="16"
   viewBox="0 0 18 16"
   fill="currentColor"
   version="1.1"
   id="svg39"
   xmlns="http://www.w3.org/2000/svg"
   xmlns:svg="http://www.w3.org/2000/svg">
  <defs
     id="defs43" />
  <path
     id="path169"
     d="M 3.8222656,0 C 3.6388169,0 3.4563762,0.0703488 3.3164062,0.2109375 L 0.20898438,3.3300781 c -0.2799333,0.28118 -0.2799333,0.7383513 0,1.0195313 L 3.3164062,7.46875 c 0.2799401,0.28117 0.7337419,0.28117 1.0136719,0 0.27994,-0.28118 0.27994,-0.7363981 0,-1.0175781 L 2.4472656,4.5605469 H 13.300781 c 0.6598,0 1.195313,0.5364787 1.195313,1.1992187 v 0.1601563 c 0,0.39764 0.320897,0.7207031 0.716797,0.7207031 0.3959,0 0.716797,-0.3230631 0.716797,-0.7207031 V 5.7597656 c 0,-1.45803 -1.177307,-2.640625 -2.628907,-2.640625 H 2.4472656 l 1.8828125,-1.890625 c 0.27994,-0.28118098 0.27994,-0.7364001 0,-1.0175781 C 4.1901131,0.0703488 4.0057144,0 3.8222656,0 Z M 14.177734,8.3203125 c -0.18345,0 -0.367812,0.070353 -0.507812,0.2109375 -0.2799,0.28118 -0.2799,0.7363981 0,1.0175781 l 1.882812,1.8906249 H 3.6640625 c -0.65981,0 -1.1953125,-0.536519 -1.1953125,-1.199219 v -0.160156 c 0,-0.3976399 -0.3209069,-0.720703 -0.7167969,-0.720703 -0.39588,0 -0.7167968,0.3230631 -0.7167969,0.720703 v 0.160156 c 0,1.458 1.1773263,2.640625 2.6289063,2.640625 H 15.552734 l -1.882812,1.890625 c -0.2799,0.2812 -0.2799,0.736379 0,1.017578 0.28,0.2812 0.733672,0.2812 1.013672,0 l 3.107422,-3.11914 C 17.925416,12.534922 18,12.351156 18,12.160156 c 0,-0.191 -0.07458,-0.374765 -0.208984,-0.509765 L 14.683594,8.53125 c -0.14,-0.140585 -0.32241,-0.2109375 -0.50586,-0.2109375 z" />
</svg>