<?xml version="1.0" encoding="UTF-8" standalone="no"?>
<svg
   width="19.501322"
   height="19.501322"
   viewBox="0 0 19.501322 19.501322"
   fill="currentColor"
   version="1.1"
   id="svg8"
   xmlns="http://www.w3.org/2000/svg"
   xmlns:svg="http://www.w3.org/2000/svg">
  <defs
     id="defs12" />
  <path
     d="m 18.751953,3 a 0.75,0.75 0 0 0 -0.53125,0.21875 l -5.292969,5.2929688 c -0.103854,0.1038545 -0.249661,0.1038545 -0.353515,0 L 10.988281,6.9277344 c -0.677145,-0.6771448 -1.7974643,-0.6771448 -2.4746091,0 L 4.2207031,11.21875 a 0.75,0.75 0 0 0 0,1.0625 0.75,0.75 0 0 0 1.0605469,0 L 9.5742188,7.9882812 c 0.1038544,-0.1038544 0.2496612,-0.1038544 0.3535156,0 l 1.5859376,1.5839844 c 0.677145,0.6771444 1.797465,0.6771444 2.474609,0 L 19.28125,4.28125 a 0.75,0.75 0 0 0 0,-1.0625 A 0.75,0.75 0 0 0 18.751953,3 Z"
     id="path4" />
  <path
     d="M 0.75195312,0 A 0.75,0.75 0 0 0 0.00195313,0.75 V 3.4355469 15.550781 c 0,1.120099 -0.03940852,1.783515 0.29882812,2.447266 0.26358395,0.517405 0.68376637,0.939541 1.20117185,1.203125 C 2.1657037,19.539409 2.831073,19.5 3.9511719,19.5 H 18.751953 a 0.75,0.75 0 0 0 0.75,-0.75 0.75,0.75 0 0 0 -0.75,-0.75 H 3.9511719 C 2.831073,18 2.3754423,17.961044 2.1835938,17.863281 1.9484,17.743466 1.7565344,17.553553 1.6367187,17.318359 1.5389558,17.126511 1.5019531,16.67088 1.5019531,15.550781 V 3.4355469 0.75 A 0.75,0.75 0 0 0 0.75195312,0 Z"
     id="path1521" />
</svg>
