<?xml version="1.0" encoding="UTF-8" standalone="no"?>
<svg
   width="18"
   height="19"
   viewBox="0 0 18 19"
   fill="currentColor"
   version="1.1"
   id="svg43"
   xmlns="http://www.w3.org/2000/svg"
   xmlns:svg="http://www.w3.org/2000/svg">
  <defs
     id="defs47" />
  <path
     id="path136"
     d="M 9,0 C 4.79159,0 1.3808594,3.4194287 1.3808594,7.6367188 1.3808594,11.854039 4.79159,15.271484 9,15.271484 c 4.2084,0 7.619141,-3.417445 7.619141,-7.6347652 C 16.619141,3.4194287 13.2084,0 9,0 Z m 0,1.4433594 c 3.4131,0 6.179688,2.7730393 6.179688,6.1933594 0,3.4203202 -2.766588,6.1914062 -6.179688,6.1914062 -3.41312,0 -6.1796875,-2.771086 -6.1796875,-6.1914062 C 2.8203125,4.2163987 5.58688,1.4433594 9,1.4433594 Z M 7.1992188,3.6074219 v 0.8027343 h -0.71875 v 0.9609376 h 0.71875 v 4.1699218 h -0.71875 v 0.9609374 h 0.71875 v 0.802735 h 0.9609374 v -0.802735 h 0.5390626 v 0.802735 h 0.9609374 v -0.802735 h 0.4199218 c 0.4559,0 0.886919,-0.193534 1.199219,-0.5273436 0.3113,-0.33279 0.480469,-0.7782182 0.480469,-1.2363282 0,-0.4581099 -0.169169,-0.9035381 -0.480469,-1.2363281 -0.0149,-0.01589 -0.03148,-0.031625 -0.04687,-0.046875 0.0154,-0.01525 0.03198,-0.030985 0.04687,-0.046875 0.3113,-0.33279 0.480469,-0.776275 0.480469,-1.234375 0,-0.45811 -0.169169,-0.9035481 -0.480469,-1.2363281 -0.3123,-0.33384 -0.743319,-0.5273438 -1.199219,-0.5273438 H 9.6601562 V 3.6074219 H 8.6992188 V 4.4101562 H 8.1601562 V 3.6074219 Z m 0.9609374,1.7636719 h 1.9199218 c 0.1806,0 0.360247,0.077349 0.498047,0.2246093 0.1387,0.14832 0.222656,0.355845 0.222656,0.578125 0,0.22227 -0.08396,0.429805 -0.222656,0.578125 -0.1378,0.14726 -0.317447,0.2226563 -0.498047,0.2226563 H 8.1601562 Z m 0,2.5664062 h 1.9199218 c 0.1806,0 0.360247,0.075386 0.498047,0.2226562 0.1387,0.14831 0.222656,0.3558451 0.222656,0.578125 0,0.22228 -0.08396,0.4298051 -0.222656,0.578125 -0.1378,0.14727 -0.317447,0.2246094 -0.498047,0.2246094 H 8.1601562 Z M 0.72070312,14.791016 C 0.32305812,14.791016 0,15.115172 0,15.513672 v 1.802734 C 0,18.246206 0.7518495,19 1.6796875,19 H 16.320312 C 17.248112,19 18,18.246206 18,17.316406 v -1.802734 c 0,-0.3985 -0.323103,-0.722656 -0.720703,-0.722656 -0.3976,0 -0.71875,0.324156 -0.71875,0.722656 v 1.802734 c 0,0.1328 -0.107734,0.240235 -0.240235,0.240235 H 1.6796875 c -0.13255,0 -0.2402344,-0.107435 -0.2402344,-0.240235 v -1.802734 c 0,-0.3985 -0.3211,-0.722656 -0.71874998,-0.722656 z" />
</svg>