<svg width="48" height="48" viewBox="0 0 48 48" fill="none" xmlns="http://www.w3.org/2000/svg">
<rect width="48" height="48" rx="24" fill="#F2F3F6"/>
<path d="M9.97446 22.8145C9.97451 22.5461 10.0275 22.2803 10.1303 22.0325C10.2332 21.7846 10.3839 21.5596 10.5738 21.3703C10.7637 21.1809 10.989 21.031 11.2369 20.9292C11.4848 20.8274 11.7503 20.7756 12.0182 20.7768L15.4064 20.7879C15.9467 20.7879 16.4648 21.0029 16.8468 21.3857C17.2288 21.7684 17.4434 22.2875 17.4434 22.8288V35.6657C17.825 35.5524 18.3134 35.4316 18.8508 35.3048C19.2232 35.217 19.555 35.0058 19.7925 34.7054C20.03 34.405 20.1593 34.0331 20.1594 33.6498V17.7277C20.1594 17.1864 20.374 16.6672 20.756 16.2844C21.138 15.9016 21.6561 15.6865 22.1964 15.6864H25.5949C26.1352 15.6865 26.6533 15.9016 27.0353 16.2844C27.4173 16.6672 27.6319 17.1864 27.6319 17.7277V32.506C27.6319 32.506 28.4821 32.1613 29.3098 31.8111C29.6174 31.6807 29.8798 31.4626 30.0644 31.1838C30.249 30.905 30.3476 30.5779 30.3479 30.2433V12.6254C30.3479 12.0842 30.5624 11.5652 30.9444 11.1824C31.3263 10.7997 31.8443 10.5847 32.3845 10.5845H35.7794C36.3194 10.5851 36.837 10.8003 37.2185 11.183C37.6001 11.5657 37.8145 12.0845 37.8145 12.6254V27.1331C40.7578 24.996 43.7407 22.4254 46.1079 19.3347C46.4514 18.886 46.6786 18.3592 46.7694 17.8011C46.8602 17.2431 46.8118 16.6712 46.6283 16.1365C45.5326 12.9781 43.7908 10.0835 41.5144 7.63821C39.238 5.19288 36.4771 3.25059 33.4085 1.93562C30.3399 0.620645 27.0311 -0.0380462 23.6938 0.00169712C20.3565 0.0414404 17.0642 0.778741 14.0277 2.16642C10.9911 3.5541 8.27714 5.56159 6.05941 8.06044C3.84167 10.5593 2.16902 13.4945 1.14849 16.6781C0.127961 19.8618 -0.217974 23.2239 0.132821 26.5492C0.483617 29.8745 1.52342 33.0898 3.18569 35.9894C3.47529 36.4896 3.90137 36.8966 4.41386 37.1626C4.92634 37.4286 5.50395 37.5425 6.07883 37.491C6.72105 37.4344 7.52066 37.3543 8.47133 37.2426C8.88509 37.1954 9.26708 36.9974 9.54455 36.6864C9.82203 36.3753 9.97561 35.9728 9.97604 35.5556V22.8145" fill="#12161C"/>
<path d="M9.90234 43.4019C13.4809 46.0102 17.7099 47.5758 22.1214 47.9255C26.5329 48.2752 30.955 47.3954 34.8985 45.3834C38.8419 43.3714 42.1529 40.3057 44.4652 36.5254C46.7775 32.7451 48.0009 28.3976 48 23.9639C48 23.4092 47.9743 22.8632 47.9376 22.3188C39.1731 35.4153 22.9903 41.5378 9.90234 43.4019Z" fill="#F0B90B"/>
</svg>
