<svg width="48" height="48" viewBox="0 0 48 48" fill="none" xmlns="http://www.w3.org/2000/svg">
<rect width="48" height="48" rx="24" fill="#F2F3F6"/>
<g clip-path="url(#clip0_1417_679)">
<path d="M11.3769 33.0173C15.0255 33.0173 17.9832 30.0698 17.9832 26.4339C17.9832 22.798 15.0255 19.8506 11.3769 19.8506C7.72827 19.8506 4.77051 22.798 4.77051 26.4339C4.77051 30.0698 7.72827 33.0173 11.3769 33.0173Z" fill="#444444"/>
<path d="M35.5705 33.0173C39.219 33.0173 42.1768 30.0698 42.1768 26.4339C42.1768 22.798 39.219 19.8506 35.5705 19.8506C31.9219 19.8506 28.9641 22.798 28.9641 26.4339C28.9641 30.0698 31.9219 33.0173 35.5705 33.0173Z" fill="#DDDDDD"/>
<mask id="mask0_1417_679" style="mask-type:alpha" maskUnits="userSpaceOnUse" x="7" y="11" width="33" height="45">
<path fill-rule="evenodd" clip-rule="evenodd" d="M23.4346 11.2878C14.517 11.2878 7.28784 18.28 7.28784 26.9053V55.8031H15.3849V27.6515C15.3849 23.3516 18.9888 19.8658 23.4344 19.8658C27.8801 19.8658 31.484 23.3516 31.484 27.6515V55.8031H39.5813V26.9053C39.5813 18.28 32.3522 11.2878 23.4346 11.2878Z" fill="#E9BCFF"/>
</mask>
<g mask="url(#mask0_1417_679)">
<path d="M7.28638 27.1537C7.28638 18.2671 14.5172 11.2878 23.4348 11.2878C32.3524 11.2878 39.5739 18.2671 39.5739 27.1537H7.28638Z" fill="#E9BCFF"/>
<path d="M8.96365 27.1537C8.96365 19.2633 15.5306 12.8669 23.4486 12.8669C31.3667 12.8669 37.7854 19.2633 37.7854 27.1537H8.96365Z" fill="#2C98F3"/>
<path d="M11.0136 27.1537C11.0136 20.4167 16.4832 15.3899 23.2438 15.3899C30.0043 15.3899 35.4848 20.4167 35.4848 27.1537H11.0136Z" fill="#58C971"/>
<path d="M13.2966 27.1537C13.2966 21.5701 17.8314 17.7212 23.4345 17.7212C29.0376 17.7212 33.5799 21.5701 33.5799 27.1537H23.4301H13.2966Z" fill="#FFCA42"/>
</g>
</g>
<defs>
<clipPath id="clip0_1417_679">
<rect width="41" height="26" fill="white" transform="translate(3 9)"/>
</clipPath>
</defs>
</svg>
