<svg width="48" height="48" viewBox="0 0 48 48" fill="none" xmlns="http://www.w3.org/2000/svg">
<rect width="48" height="48" rx="24" fill="#F2F3F6"/>
<path fill-rule="evenodd" clip-rule="evenodd" d="M35.8251 27.122C35.2587 27.4747 34.5917 27.5184 34.0847 27.2367C33.4406 26.8784 33.0865 26.0394 33.0865 24.8726V21.3815C33.0865 19.6956 32.41 18.496 31.2787 18.1721C29.3616 17.6219 27.9198 19.9329 27.3779 20.8008L23.9968 26.2018V19.6004C23.9588 18.0816 23.4582 17.1731 22.5075 16.8991C21.8785 16.718 20.9374 16.7906 20.0232 18.169L12.4482 30.1526C11.4341 28.2558 10.9054 26.1438 10.9082 24C10.9082 16.7813 16.7799 10.9089 23.9968 10.9089C31.2138 10.9089 37.0847 16.7813 37.0847 24C37.0847 24.0125 37.0879 24.0234 37.0887 24.0351C37.0887 24.0476 37.0863 24.0585 37.0871 24.071C37.1552 25.4689 36.6958 26.5803 35.8251 27.122ZM39.9929 24.0008V23.9641L39.9921 23.9282C39.9517 15.1368 32.7926 8 23.9961 8C15.1765 8 8 15.1774 8 24C8 32.8219 15.1765 40 23.9968 40C28.0442 40 31.9069 38.4843 34.8721 35.7331C35.4615 35.1867 35.4964 34.2665 34.9498 33.678C34.8211 33.5383 34.6654 33.4252 34.4919 33.3454C34.3183 33.2657 34.1303 33.2209 33.9389 33.2136C33.7476 33.2063 33.5566 33.2368 33.3773 33.3031C33.1981 33.3695 33.034 33.4704 32.8948 33.6C30.4913 35.8423 27.3069 37.0917 23.9968 37.0911C20.1325 37.0911 16.6556 35.406 14.2576 32.7337L21.0887 21.927V26.9089C21.0887 29.3019 22.0306 30.0753 22.8204 30.3017C23.611 30.528 24.8191 30.3735 26.0875 28.3442L29.8448 22.343C29.9653 22.1495 30.0762 21.9824 30.1776 21.838V24.8726C30.1776 27.1095 31.087 28.8983 32.6722 29.7795C34.1013 30.574 35.898 30.5022 37.362 29.5922C39.1365 28.4878 40.0927 26.4531 39.9929 24.0008Z" fill="#17181B"/>
</svg>
