<svg width="48" height="48" viewBox="0 0 48 48" fill="none" xmlns="http://www.w3.org/2000/svg">
<rect width="48" height="48" rx="24" fill="#F2F3F6"/>
<path d="M22.5629 7.54623C22.8855 7.35788 23.2082 7.16952 23.5308 7C29.0158 10.1644 34.5008 13.3099 39.9858 16.4366C40.0047 21.1456 40.0047 25.8545 39.9858 30.5445C34.4818 33.6901 28.9968 36.8356 23.5308 40C18.0269 36.8545 12.504 33.6901 7 30.5257C7.01898 25.8168 6.98102 21.1267 7.01898 16.4366C7.30367 16.3048 7.56937 16.1541 7.83508 15.9846C12.7507 13.1781 17.6473 10.3527 22.5629 7.54623ZM23.36 10.9932C19.1656 13.4041 14.9712 15.7962 10.7768 18.2072C10.625 18.3202 10.4162 18.3767 10.3024 18.5462C13.5288 20.3733 16.7553 22.238 19.9817 24.0839L20.2285 24.1593C21.1964 22.9538 22.2213 21.8048 23.1892 20.5993C21.3103 19.5068 19.4313 18.4144 17.5334 17.3596C17.7612 17.1147 18.1028 16.9829 18.3875 16.7945C19.3175 16.2483 20.2095 15.6644 21.1395 15.1558C26.3208 18.1507 31.54 21.0702 36.7213 24.0651C36.7403 22.2192 36.7403 20.3545 36.7213 18.5086C32.4321 16.0034 28.0858 13.5548 23.7965 11.0685C23.6447 10.9743 23.4929 10.8801 23.36 10.9932ZM26.4347 22.5017C25.4667 23.7072 24.4418 24.875 23.4549 26.0805C25.239 27.0788 27.004 28.1147 28.7881 29.113C28.7881 29.1507 28.7881 29.226 28.7881 29.2637C27.7442 29.9418 26.6814 30.601 25.6375 31.2979C25.5237 31.3733 25.3908 31.5051 25.239 31.411C20.2474 28.5668 15.2939 25.6661 10.2834 22.8596C10.2454 24.7055 10.2834 26.5514 10.2644 28.3784C14.6106 30.9212 18.9948 33.3887 23.36 35.9127C23.5498 36.0445 23.7396 35.8185 23.9294 35.762C28.1618 33.3322 32.4131 30.9024 36.6454 28.4726C36.6454 28.4349 36.6265 28.3408 36.6265 28.2843C33.3431 26.4007 30.0597 24.5171 26.7763 22.6336C26.6814 22.5771 26.5675 22.5394 26.4347 22.5017Z" fill="#1AB394"/>
</svg>
