<svg width="48" height="48" viewBox="0 0 48 48" fill="none" xmlns="http://www.w3.org/2000/svg">
<rect width="48" height="48" rx="24" fill="#7FB0E8"/>
<mask id="mask0_1271_665" style="mask-type:alpha" maskUnits="userSpaceOnUse" x="0" y="0" width="48" height="48">
<rect width="48" height="48" rx="24" fill="#7FB0E8"/>
</mask>
<g mask="url(#mask0_1271_665)">
<path d="M11.8854 43.8679C11.8854 38.6078 16.0516 34.3437 21.1909 34.3437H25.9529C31.0922 34.3437 35.2584 38.6078 35.2584 43.8679C35.2584 44.476 35.0941 47.5 34.5 47.5L29.4578 48L23 48.5L12.5 47.5C11.9059 47.5 11.8854 44.476 11.8854 43.8679Z" fill="#004A9E"/>
<path d="M16.7421 36.1767H30.341V44.0058C30.341 44.5549 29.9061 45 29.3696 45H23.5416H17.7135C17.177 45 16.7421 44.5549 16.7421 44.0058V36.1767Z" fill="#004A9E"/>
<path d="M23.5416 33.7223C23.5416 33.7223 29.3393 34.1883 30.0982 35.3068C30.6305 36.0913 30.1621 37.4721 29.4578 38.9235C28.8925 40.0885 27.7089 40.7945 26.4384 40.8266L26.0306 40.8369L25.1407 40.8147C24.2513 40.7925 23.5416 40.0481 23.5416 39.1375V33.7223Z" fill="#4191ED"/>
<path d="M23.5282 33.7223C23.5282 33.7223 17.7305 34.1883 16.9717 35.3068C16.4394 36.0913 16.9077 37.4721 17.612 38.9235C18.1773 40.0885 19.3609 40.7945 20.6314 40.8266L21.0391 40.8369L21.929 40.8147C22.8185 40.7925 23.5282 40.0481 23.5282 39.1375V33.7223Z" fill="#4191ED"/>
<path d="M20.6882 32.6039H26.4556V36.9223C26.4556 38.5524 25.1645 39.8738 23.5719 39.8738C21.9793 39.8738 20.6882 38.5524 20.6882 36.9223V32.6039Z" fill="#8B3E2A"/>
<path d="M8 26.9184C8 23.6069 10.6229 20.9223 13.8584 20.9223H33.2247C36.4602 20.9223 39.0831 23.6069 39.0831 26.9184C39.0831 30.23 36.4602 32.9146 33.2247 32.9146H13.8584C10.6229 32.9146 8 30.23 8 26.9184Z" fill="#122322"/>
<path d="M14.7994 20.0835C14.7994 16.2057 17.8708 13.0621 21.6596 13.0621H25.3628C29.1516 13.0621 32.223 16.2057 32.223 20.0835V25.9864C32.223 29.8642 29.1516 33.0078 25.3628 33.0078H21.6596C17.8708 33.0078 14.7994 29.8642 14.7994 25.9864V20.0835Z" fill="#9B4832"/>
<path d="M25.2293 25.6787C25.6977 25.8489 25.9368 26.4185 25.663 26.8431C25.5004 27.0952 25.3885 27.1577 25.1091 27.3605C24.6453 27.6972 24.0911 27.8792 23.5225 27.8815C22.9538 27.8839 22.3982 27.7066 21.9317 27.3737C21.6585 27.1789 21.5079 27.0135 21.3416 26.7549C21.1005 26.38 21.2824 25.8727 21.6899 25.7068L21.8794 25.6423C22.2268 25.5242 22.5975 25.7409 22.8978 25.9551C23.079 26.0844 23.2947 26.1532 23.5156 26.1523C23.7364 26.1514 23.9516 26.0807 24.1318 25.95C24.4344 25.7303 24.7899 25.519 25.1395 25.646L25.2293 25.6787Z" fill="#C05C4B"/>
<path d="M11.0355 23.9049C11.0355 22.2233 12.3673 20.8602 14.0102 20.8602H14.7994L15.0119 26.9495H14.0102C12.3673 26.9495 11.0355 25.5864 11.0355 23.9049Z" fill="#9B4832"/>
<path d="M35.9869 23.9049C35.9869 22.2233 34.6551 20.8602 33.0122 20.8602H32.223L31.9498 26.9495H33.0122C34.6551 26.9495 35.9869 25.5864 35.9869 23.9049Z" fill="#9B4832"/>
<path d="M14.7994 20.2078C14.7994 16.227 17.9523 13 21.8417 13H23.5415V18.4058C23.5415 18.4058 19.0491 21.3171 17.3796 21.0155C14.7994 20.5495 14.7994 21.5748 14.7994 21.5748V20.2078Z" fill="#122322"/>
<path d="M32.2837 20.2388C32.2837 16.2581 29.1308 13.0311 25.2414 13.0311H23.5416V18.4369C23.5416 18.4369 28.034 21.3481 29.7035 21.0466C32.2837 20.5806 32.2837 21.6058 32.2837 21.6058V20.2388Z" fill="#122322"/>
</g>
</svg>
