<svg width="48" height="48" viewBox="0 0 48 48" fill="none" xmlns="http://www.w3.org/2000/svg">
<path d="M24 0C10.8 0 0 10.8 0 24C0 37.2 10.8 48 24 48C37.2 48 48 37.2 48 24C48 10.8 37.2 0 24 0Z" fill="#0288D1"/>
<path d="M16.9167 18.125H12.0833V36.25H16.9167V18.125Z" fill="white"/>
<path d="M14.5 15.7083C13.05 15.7083 12.0833 14.6208 12.0833 13.2917C12.0833 11.9625 13.05 10.875 14.5 10.875C15.95 10.875 16.9167 11.9625 16.9167 13.2917C16.9167 14.6208 15.95 15.7083 14.5 15.7083Z" fill="white"/>
<path d="M37.4583 24.7708C37.4583 21.1458 34.4375 18.125 30.8125 18.125C28.5167 18.125 26.5833 19.2125 25.375 20.9042V18.125H20.5417V36.25H25.375V26.5833C25.375 24.5292 26.9458 22.9583 29 22.9583C31.0542 22.9583 32.625 24.5292 32.625 26.5833V36.25H37.4583C37.4583 36.25 37.4583 25.2542 37.4583 24.7708Z" fill="white"/>
</svg>
