<svg width="48" height="48" viewBox="0 0 48 48" fill="none" xmlns="http://www.w3.org/2000/svg">
<rect width="48" height="48" rx="24" fill="#F2F3F6"/>
<path d="M24 7C24.9815 7.00307 25.9601 7.10511 26.9209 7.30457L26.1624 10.1159C24.7353 9.83969 23.268 9.83969 21.8409 10.1159L21.0792 7.30457C22.0399 7.10509 23.0185 7.00304 24 7ZM28.3216 7.68261C30.1928 8.28626 31.9145 9.27759 33.3734 10.5914L31.3096 12.6467C30.2154 11.6882 28.942 10.9544 27.5623 10.4874L28.3216 7.68261ZM34.4012 11.6149C35.722 13.0681 36.7177 14.7843 37.322 16.6498L34.504 17.3993C34.0321 16.0278 33.2961 14.7611 32.3373 13.6702L34.4012 11.6149ZM37.6942 18.0408C38.1019 19.9587 38.1019 21.9404 37.6942 23.8583L34.8762 23.1014C35.1547 21.6777 35.1547 20.2139 34.8762 18.7902L37.6942 18.0408ZM37.322 25.2532C36.7154 27.1163 35.72 28.8305 34.4011 30.2833L32.3373 28.228C33.2966 27.1384 34.0309 25.8712 34.4981 24.4988L37.322 25.2532ZM33.3734 31.3077C31.9107 32.6159 30.1905 33.6065 28.3224 34.2164L27.5623 31.4042C28.9431 30.9395 30.2169 30.2055 31.3096 29.245L33.3734 31.3077ZM26.9217 34.587C24.9958 34.9931 23.0059 34.9931 21.08 34.587L21.8401 31.7748C23.2661 32.0621 24.7355 32.0621 26.1616 31.7748L26.9217 34.587ZM19.6792 34.2164C17.8095 33.6094 16.0885 32.6185 14.6275 31.3077L16.6913 29.2441C17.7843 30.2045 19.0584 30.9385 20.4393 31.4034L19.6792 34.2164ZM13.5987 30.2833C12.2796 28.8307 11.2842 27.1164 10.678 25.2533L13.4962 24.4963C13.9681 25.8689 14.7047 27.1365 15.6645 28.228L13.5987 30.2833ZM10.3058 23.8583C9.89805 21.9404 9.89805 19.9587 10.3058 18.0407L13.1239 18.7902C12.8465 20.214 12.8465 21.6776 13.1239 23.1014L10.3058 23.8583ZM10.678 16.6458C11.2845 14.7813 12.2799 13.0655 13.5987 11.6108L15.6626 13.6743C14.7027 14.7619 13.9683 16.0279 13.5019 17.3994L10.678 16.6458ZM14.6266 10.5914C16.0867 9.27719 17.8098 8.28585 19.6824 7.68261L20.4426 10.489C19.0614 10.9553 17.7863 11.6885 16.6904 12.6467L14.6266 10.5914Z" fill="#F47116"/>
<path d="M22.8894 11.3335C25.1994 11.066 27.6063 11.6446 29.5135 12.9727C32.0986 14.7243 33.7605 17.7734 33.7082 20.8967C33.7828 23.9607 32.2105 26.9809 29.7223 28.7613C28.5377 29.6209 27.1716 30.1996 25.7282 30.4534C24.9234 30.6243 24.1045 30.5945 23.2997 30.5797C20.364 30.3865 17.5807 28.7539 15.9528 26.3205C14.9479 24.8376 14.3781 23.105 14.3075 21.3173C14.2369 19.5297 14.6683 17.7578 15.5532 16.2009C17.0452 13.5448 19.85 11.6743 22.8894 11.3335ZM23.3038 14.2125C23.2965 14.7986 23.259 15.3772 23.2739 15.9558C22.1343 15.9558 20.9938 15.9558 19.8541 15.9631C19.8615 16.5863 19.8541 17.2095 19.8615 17.8327H21.1892C21.1966 19.9028 21.1892 21.973 21.1966 24.0506H19.8574C19.8501 24.6737 19.8574 25.2887 19.8574 25.9136C20.9971 25.9284 22.1367 25.9209 23.2698 25.9209C23.3444 26.4986 23.2325 27.0855 23.2996 27.6641H24.7302C24.7375 27.0864 24.7302 26.4995 24.7451 25.9209C25.758 25.8763 26.8015 25.5198 27.4945 24.7479C28.1576 24.043 28.3142 22.9749 28.0531 22.0695C27.8591 21.372 27.2931 20.8454 26.6524 20.5482C27.032 20.2296 27.3983 19.8656 27.5766 19.3925C27.889 18.5836 27.807 17.5766 27.1812 16.9294C26.5629 16.2542 25.6238 16.0091 24.7452 15.9497C24.7303 15.3719 24.7379 14.7939 24.7379 14.2163L23.3038 14.2125ZM23.3867 17.8328C23.9304 17.8551 24.5114 17.7503 25.0327 17.9591C25.7033 18.2414 25.6063 19.2947 25.0401 19.6362C24.5428 19.9251 23.9377 19.8285 23.3824 19.8508C23.389 19.1756 23.389 18.5004 23.3815 17.8326L23.3867 17.8328ZM23.394 21.7288C24.0496 21.7288 24.7425 21.6545 25.3608 21.9285C26.1209 22.2777 26.0761 23.5389 25.331 23.8732C24.7201 24.1473 24.0347 24.0284 23.394 24.0507V21.7288ZM16.6084 34.053C18.1135 34.8545 19.7381 35.4628 21.4298 35.7443C24.3261 36.2457 27.3063 35.8946 30.0051 34.734C30.4593 34.5557 30.877 34.2957 31.3312 34.1257C30.9814 34.6597 30.5338 35.1162 30.1319 35.6172C28.6043 37.4125 27.0693 39.2078 25.4232 40.9C25.0205 41.2706 24.6408 41.6866 24.1642 41.9606C23.9629 42.0795 23.7688 41.9012 23.6122 41.7956C23.1556 41.4223 22.7227 41.0212 22.3159 40.5946C20.3192 38.4972 18.4343 36.2941 16.6084 34.053Z" fill="#196BBF"/>
</svg>
