<svg width="48" height="48" viewBox="0 0 48 48" fill="none" xmlns="http://www.w3.org/2000/svg">
<rect width="48" height="48" rx="24" fill="#F2F3F6"/>
<path d="M17.587 16.8696C17.2628 16.8696 17 16.6068 17 16.2826C17 15.9584 17.2628 15.6957 17.587 15.6957H28C28.5523 15.6957 29 16.1434 29 16.6957V37.405C29 37.7336 28.7336 38 28.405 38C28.0763 38 27.8099 37.7336 27.8099 37.405V17.4646C27.8099 17.136 27.5435 16.8696 27.2149 16.8696C26.8862 16.8696 26.6198 17.136 26.6198 17.4646V37.405C26.6198 37.7336 26.3534 38 26.0248 38C25.6962 38 25.4298 37.7336 25.4298 37.405V17.4646C25.4298 17.136 25.1633 16.8696 24.8347 16.8696C24.5061 16.8696 24.2397 17.136 24.2397 17.4646V37.405C24.2397 37.7336 23.9733 38 23.6446 38C23.316 38 23.0496 37.7336 23.0496 37.405V17.8696C23.0496 17.3173 22.6019 16.8696 22.0496 16.8696H17.587ZM17.587 14.5217C17.2628 14.5217 17 14.2589 17 13.9348C17 13.6106 17.2628 13.3478 17.587 13.3478H28.413C28.7372 13.3478 29 13.6106 29 13.9348C29 14.2589 28.7372 14.5217 28.413 14.5217H17.587ZM17.587 12.1739C17.2628 12.1739 17 11.9111 17 11.587C17 11.2628 17.2628 11 17.587 11H28.413C28.7372 11 29 11.2628 29 11.587C29 11.9111 28.7372 12.1739 28.413 12.1739H17.587Z" fill="#0066DA"/>
</svg>
