<svg width="48" height="48" viewBox="0 0 48 48" fill="none" xmlns="http://www.w3.org/2000/svg">
<rect width="48" height="48" rx="24" fill="#F2F3F6"/>
<path fill-rule="evenodd" clip-rule="evenodd" d="M13.7 13C13.2 10.4 15.2 8 17.8 8C20.1 8 22 9.9 22 12.2V17.4C22.6 17.4 23.2 17.3 23.8 17.3C24.4 17.3 24.9 17.3 25.5 17.4V12.2C25.5 9.9 27.4 8 29.7 8C32.3 8 34.3 10.4 33.9 13L32.8 19.1C36.7 20.8 39.7 23.8 39.7 27.5V29.8C39.7 32.9 37.7 35.5 34.8 37.2C31.9 39 28.1 40 23.8 40C19.5 40 15.7 39 12.8 37.2C10 35.5 8 32.9 8 29.8V27.5C8 23.8 10.9 20.8 14.8 19.1L13.7 13ZM31.3 19.9L32.6 12.7C32.9 10.9 31.6 9.2 29.7 9.2C28.1 9.2 26.8 10.5 26.8 12.1V18.7C26.4 18.6 25.9 18.6 25.5 18.6C24.9 18.6 24.4 18.5 23.8 18.5C23.2 18.5 22.6 18.5 22 18.6C21.6 18.6 21.1 18.7 20.7 18.7V12.2C20.7 10.6 19.4 9.3 17.8 9.3C16 9.3 14.6 11 15 12.8L16.3 20C12.1 21.6 9.3 24.4 9.3 27.6V29.9C9.3 34.8 15.8 38.8 23.8 38.8C31.8 38.8 38.3 34.8 38.3 29.9V27.6C38.4 24.3 35.6 21.5 31.3 19.9Z" fill="#633001"/>
<path d="M38.4 29.8C38.4 34.7 31.9 38.7 23.9 38.7C15.9 38.7 9.4 34.7 9.4 29.8V27.5H38.5V29.8H38.4Z" fill="#FEDC90"/>
<path fill-rule="evenodd" clip-rule="evenodd" d="M15 12.8C14.6 11 16 9.3 17.8 9.3C19.4 9.3 20.7 10.6 20.7 12.2V18.8C21.7 18.7 22.7 18.6 23.8 18.6C24.8 18.6 25.8 18.7 26.8 18.8V12.2C26.8 10.6 28.1 9.3 29.7 9.3C31.5 9.3 32.9 11 32.6 12.8L31.3 20C35.5 21.6 38.4 24.4 38.4 27.6C38.4 32.5 31.9 36.5 23.9 36.5C15.9 36.5 9.4 32.5 9.4 27.6C9.4 24.4 12.2 21.6 16.4 20L15 12.8Z" fill="#D1884F"/>
<path d="M19.8 26.9C19.8 28.2 19.1 29.3 18.2 29.3C17.3 29.3 16.6 28.2 16.6 26.9C16.6 25.6 17.3 24.5 18.2 24.5C19.1 24.5 19.8 25.6 19.8 26.9Z" fill="#633001"/>
<path d="M30.9 26.9C30.9 28.2 30.2 29.3 29.3 29.3C28.4 29.3 27.7 28.2 27.7 26.9C27.7 25.6 28.4 24.5 29.3 24.5C30.2 24.5 30.9 25.6 30.9 26.9Z" fill="#633001"/>
</svg>
