<svg width="48" height="48" viewBox="0 0 48 48" fill="none" xmlns="http://www.w3.org/2000/svg">
<rect width="48" height="48" rx="24" fill="url(#paint0_linear_1423_789)"/>
<path d="M21.8599 11.0089C21.8599 10.4517 22.3219 10 22.8918 10H24.5256C25.0955 10 25.5575 10.4517 25.5575 11.0089V24.5452C25.5575 25.1024 25.0955 25.5541 24.5256 25.5541H22.8918C22.3219 25.5541 21.8599 25.1024 21.8599 24.5452V11.0089Z" fill="white"/>
<path d="M23.4618 27.4284C22.9683 27.1498 22.7992 26.5328 23.0841 26.0502L23.9011 24.6668C24.186 24.1842 24.8171 24.0189 25.3106 24.2975L38.4839 31.7337C38.9774 32.0123 39.1465 32.6294 38.8616 33.1119L38.0447 34.4954C37.7597 34.9779 37.1286 35.1433 36.6351 34.8647L23.4618 27.4284Z" fill="white"/>
<path d="M26.4174 25.8484C26.4174 27.3111 25.2047 28.4968 23.7087 28.4968C22.2127 28.4968 21 27.3111 21 25.8484C21 24.3857 22.2127 23.2 23.7087 23.2C25.2047 23.2 26.4174 24.3857 26.4174 25.8484Z" fill="white"/>
<defs>
<linearGradient id="paint0_linear_1423_789" x1="24" y1="0" x2="24" y2="48" gradientUnits="userSpaceOnUse">
<stop stop-color="#2B5C82"/>
<stop offset="1" stop-color="#517396"/>
</linearGradient>
</defs>
</svg>
