<svg width="48" height="48" viewBox="0 0 48 48" fill="none" xmlns="http://www.w3.org/2000/svg">
<path fill-rule="evenodd" clip-rule="evenodd" d="M0.0978642 21.8169L7.647 26.2672C8.21235 26.5956 8.95624 26.5956 9.5216 26.2672C9.91516 26.0581 18.7564 20.8973 22.76 18.5603C23.9023 17.8936 24.6507 17.4567 24.6969 17.4302C25.1433 17.1615 25.6491 17.1615 26.0955 17.4004C26.2328 17.4755 26.4541 17.6033 26.6976 17.7439C27.0343 17.9384 27.4135 18.1574 27.6725 18.296C28.1188 18.5348 28.0891 19.2215 27.7023 19.4603L9.61087 30.0288C8.95624 30.417 8.30162 30.4169 7.61724 30.0587C6.49729 29.4081 1.93267 26.7366 0.0532227 25.6125C0.150481 27.0786 0.379391 28.5086 0.728238 29.891L7.647 33.9696C8.21235 34.298 8.95624 34.298 9.5216 33.9696C9.91513 33.7606 18.7548 28.6007 22.759 26.2634C23.9018 25.5964 24.6507 25.1592 24.6969 25.1327C25.1433 24.864 25.6491 24.864 26.0955 25.1028C26.2328 25.178 26.4541 25.3058 26.6976 25.4464C27.0343 25.6409 27.4135 25.8599 27.6725 25.9985C28.1188 26.2373 28.0891 26.924 27.7023 27.1628L9.61087 37.7313C8.95624 38.0896 8.30162 38.0896 7.61724 37.7313C6.86298 37.2932 4.54634 35.9384 2.53976 34.757C6.48408 42.6105 14.6126 48 23.9999 48C37.2547 48 47.9999 37.2548 47.9999 24C47.9999 10.7452 37.2547 0 23.9999 0C13.7542 0 5.00804 6.42018 1.56494 15.457L7.647 19.0424C8.21235 19.3708 8.95624 19.3708 9.5216 19.0424C9.91514 18.8333 18.7554 13.6731 22.7594 11.3359C23.902 10.669 24.6507 10.2319 24.6969 10.2054C25.1433 9.93672 25.6491 9.93673 26.0955 10.1756C26.2328 10.2507 26.4541 10.3785 26.6976 10.5191C27.0343 10.7136 27.4135 10.9326 27.6725 11.0712C28.1188 11.31 28.0891 11.9967 27.7023 12.2355L9.61087 22.804C8.95624 23.1921 8.30162 23.1921 7.61724 22.8339C6.59232 22.2385 2.68254 19.9507 0.585935 18.7051C0.357505 19.7196 0.193315 20.7583 0.0978642 21.8169Z" fill="#E44332"/>
</svg>
