<?xml version="1.0" encoding="UTF-8" standalone="no"?>
<svg
   width="19"
   height="19"
   viewBox="0 0 19 19"
   fill="currentColor"
   version="1.1"
   id="svg43"
   xmlns="http://www.w3.org/2000/svg"
   xmlns:svg="http://www.w3.org/2000/svg">
  <defs
     id="defs47" />
  <path
     id="path136"
     d="M 8.4707031,0 C 6.6800631,-1.5448267e-5 5.2623438,-7.989411e-4 4.1523438,0.1484375 3.0099838,0.3020235 2.0846388,0.62629475 1.3554688,1.3554688 0.62629475,2.0846387 0.3020235,3.0099837 0.1484375,4.1523438 -7.989411e-4,5.2623438 -1.5448267e-5,6.6800631 0,8.4707031 v 2.0585939 c -1.5448267e-5,1.7907 -7.989411e-4,3.208359 0.1484375,4.318359 0.153586,1.1423 0.47785725,2.067775 1.2070313,2.796875 0.7291699,0.7292 1.6545149,1.053431 2.796875,1.207031 C 5.2623537,19.000763 6.6800631,19 8.4707031,19 h 2.0585939 c 1.7907,0 3.208359,7.63e-4 4.318359,-0.148438 1.1423,-0.1536 2.067775,-0.477831 2.796875,-1.207031 0.7292,-0.7291 1.053431,-1.654575 1.207031,-2.796875 C 19.000763,13.737656 19,12.319997 19,10.529297 V 8.4707031 c 0,-1.79064 7.63e-4,-3.2083494 -0.148438,-4.3183593 -0.1536,-1.14236 -0.477831,-2.067705 -1.207031,-2.796875 C 16.915431,0.62629475 15.989956,0.3020235 14.847656,0.1484375 13.737656,-7.989411e-4 12.319997,-1.5448267e-5 10.529297,0 Z m 0.054687,1.4609375 h 1.9492184 c 1.8579,0 3.178388,0.0021 4.179688,0.1367187 0.9803,0.1318001 1.544631,0.3786657 1.957031,0.7910157 0.4123,0.41236 0.659216,0.9767412 0.791016,1.9570312 0.1346,1.00131 0.136718,2.3217575 0.136718,4.1796875 v 1.9492184 c 10e-7,1.8579 -0.0021,3.178388 -0.136718,4.179688 -0.1318,0.9803 -0.378716,1.544631 -0.791016,1.957031 -0.4124,0.4123 -0.976731,0.659216 -1.957031,0.791016 -1.0013,0.1346 -2.321788,0.136718 -4.179688,0.136718 H 8.5253906 c -1.85793,10e-7 -3.1783775,-0.0021 -4.1796875,-0.136718 -0.98029,-0.1318 -1.5446712,-0.378716 -1.9570312,-0.791016 -0.41235,-0.4124 -0.6592157,-0.976731 -0.7910157,-1.957031 -0.13462,-1.0013 -0.1367187,-2.321788 -0.1367187,-4.179688 V 8.5253906 c 0,-1.85793 0.0021,-3.1783775 0.1367187,-4.1796875 0.1318001,-0.98029 0.3786657,-1.5446712 0.7910157,-1.9570312 0.41236,-0.41235 0.9767412,-0.6592156 1.9570312,-0.7910157 1.00131,-0.1346199 2.3217575,-0.1367187 4.1796875,-0.1367187 z m 5.3593754,2.1933594 c -0.8072,0 -1.460938,0.6537575 -1.460938,1.4609375 0,0.80719 0.653738,1.4609375 1.460938,1.4609375 0.8072,0 1.460937,-0.6537475 1.460937,-1.4609375 0,-0.80718 -0.653737,-1.4609375 -1.460937,-1.4609375 z m -8.0058598,3.65625 c -0.061403,9.401e-4 -0.1240968,0.00458 -0.1855468,0.00977 -0.57099,0.04818 -1.0518356,0.334545 -1.5097656,0.703125 -0.42665,0.3434 -0.9134563,0.8276788 -1.5039063,1.4179687 v 1.0332028 c 0,0.3686 8.131e-4,0.71085 0.00195,1.03125 l 0.9140625,-0.914062 c 0.66751,-0.6675201 1.1273394,-1.1250276 1.5058594,-1.4296876 0.37518,-0.30198 0.5756837,-0.3730257 0.7148437,-0.3847656 0.2234501,-0.01886 0.4479676,0.022547 0.6484376,0.1230468 0.12485,0.06259 0.2872475,0.20528 0.5234374,0.625 0.2383001,0.42345 0.4933744,1.0190184 0.8652344,1.8867184 l 0.064453,0.150391 c 0.14779,0.3449 0.2793231,0.650419 0.4082031,0.886719 0.13377,0.2453 0.3141187,0.511006 0.6054687,0.691406 0.35576,0.2202 0.7793363,0.302769 1.1914064,0.230469 0.3375,-0.0593 0.603059,-0.239869 0.818359,-0.417969 0.2074,-0.1715 0.441731,-0.406575 0.707032,-0.671875 l 0.02344,-0.02344 c 0.4123,-0.4123 0.690875,-0.688212 0.921875,-0.882812 0.2239,-0.1887 0.351772,-0.255056 0.451172,-0.285156 0.2295,-0.0692 0.475678,-0.0692 0.705078,0 0.0995,0.0301 0.227272,0.09646 0.451172,0.285156 0.2309,0.1946 0.509575,0.470512 0.921875,0.882812 l 1.160156,1.16211 c 0.0257,-0.5617 0.03481,-1.22585 0.03711,-2.03125 l -0.185546,-0.185547 c -0.3847,-0.3847 -0.705935,-0.705713 -0.990235,-0.945313 -0.2967,-0.25 -0.603356,-0.4549757 -0.972656,-0.5664058 -0.5047,-0.1522699 -1.044128,-0.1522699 -1.548828,0 -0.3693,0.1114301 -0.676056,0.3164058 -0.972656,0.5664058 -0.2843,0.2396 -0.605535,0.560613 -0.990235,0.945313 l -0.02148,0.02148 c -0.2955,0.2955 -0.481406,0.479563 -0.628906,0.601563 -0.09023,0.0746 -0.1352679,0.09927 -0.1484379,0.105469 -0.05299,0.0073 -0.1058437,-0.0029 -0.1523437,-0.0293 C 9.6990844,11.891644 9.665445,11.8528 9.609375,11.75 9.517725,11.582 9.41463,11.341131 9.25,10.957031 L 9.1796875,10.796875 C 8.8288275,9.978165 8.5433988,9.3091538 8.2617188,8.8085938 7.9734287,8.2963138 7.6333437,7.85054 7.1210938,7.59375 6.7351925,7.4002875 6.3087285,7.3039659 5.8789062,7.3105469 Z" />
</svg>