<svg width="14" height="23" viewBox="0 0 14 23" fill="currentColor" xmlns="http://www.w3.org/2000/svg">
<path fill-rule="evenodd" clip-rule="evenodd" d="M10.0326 2.05111L9.74378 2.16665C9.1827 2.39107 8.58396 2.50638 7.97967 2.50638H5.89911C5.38857 2.50638 4.88137 2.42407 4.39703 2.26263L3.75 2.04695L2.35472 2.51205C1.84429 2.68219 1.5 3.15986 1.5 3.6979V19.3149C1.5 19.8529 1.84429 20.3306 2.35472 20.5007L2.42687 20.5248C5.24449 21.464 8.28515 21.4993 11.1238 20.6259L11.6176 20.474C12.1421 20.3126 12.5 19.828 12.5 19.2792V3.73353C12.5 3.18478 12.1421 2.70019 11.6176 2.53881L10.0326 2.05111ZM3.51283 0.544869C5.61225 -0.154939 7.87787 -0.18128 9.993 0.469529L12.0587 1.10514C13.2126 1.46018 14 2.52627 14 3.73353V19.2792C14 20.4865 13.2126 21.5526 12.0587 21.9076L11.565 22.0596C8.42747 23.0249 5.06674 22.9859 1.95253 21.9478L1.88037 21.9237C0.757433 21.5494 0 20.4985 0 19.3149V3.6979C0 2.51422 0.757433 1.46333 1.88037 1.08902L3.51283 0.544869Z" />
<path fill-rule="evenodd" clip-rule="evenodd" d="M6 7.98053C6 8.51801 6.44305 8.96106 6.99506 8.96106C7.54706 8.96106 7.98285 8.51801 7.98285 7.98053C7.98285 7.43579 7.54706 7 6.99506 7C6.44305 7 6 7.43579 6 7.98053ZM6.09443 15.1786C6.09443 15.4941 6.35026 15.75 6.66585 15.75H7.33153C7.64712 15.75 7.90296 15.4941 7.90296 15.1786V10.6946C7.90296 10.379 7.64712 10.1232 7.33153 10.1232H6.66585C6.35026 10.1232 6.09443 10.379 6.09443 10.6946V15.1786Z" />
</svg>
