<?xml version="1.0" encoding="UTF-8" standalone="no"?>
<svg
   width="511.7449"
   height="262.17087"
   viewBox="0 0 511.7449 262.17087"
   fill="none"
   version="1.1"
   id="svg4"
   xmlns="http://www.w3.org/2000/svg"
   xmlns:svg="http://www.w3.org/2000/svg">
  <defs
     id="defs8" />
  <path
     d="M 501.11647,10.8111 C 497.71985,7.38544 493.67509,4.66639 489.22099,2.81082 484.76688,0.9553 479.99115,0 475.16668,0 c -4.82447,0 -9.60508,0.9553 -14.05431,2.81082 -4.4541,1.85557 -8.49886,4.57462 -11.89596,8.00028 L 281.82152,178.20516 c -3.3976,3.42538 -7.43991,6.14462 -11.89353,8.00034 -4.45411,1.85522 -9.2313,2.81086 -14.05626,2.81086 -4.82447,0 -9.60166,-0.95564 -14.05577,-2.81086 -4.45361,-1.85572 -8.49593,-4.57496 -11.89402,-8.00034 L 62.527535,10.8111 C 59.12994,7.38544 55.087621,4.66639 50.634004,2.81082 46.1799,0.9553 41.402702,0 36.577748,0 31.75328,0 26.976083,0.9553 22.521978,2.81082 18.068362,4.66639 14.026043,7.38544 10.628156,10.8111 3.8208807,17.65897 0,26.92238 0,36.57829 0,46.23356 3.8208807,55.49702 10.628156,62.34484 l 167.759704,167.7599 c 20.55905,20.53322 48.42742,32.06614 77.48387,32.06614 29.05694,0 56.92531,-11.53292 77.48387,-32.06614 L 501.11647,62.34484 c 6.80786,-6.84782 10.62845,-16.11128 10.62845,-25.76655 0,-9.65591 -3.82059,-18.91932 -10.62845,-25.76719 z"
     fill="currentColor"
     id="path2" />
</svg>
